  0
SECTION
  2
HEADER
  9
$ACADVER
  1
AC1009
  9
$INSBASE
 10
0.0
 20
0.0
 30
0.0
  9
$EXTMIN
 10
100.7567777525888033
 20
-269.9000662462315177
 30
0.0
  9
$EXTMAX
 10
109.4987777506655959
 20
-26.7860447909699104
 30
0.0
  9
$LIMMIN
 10
0.0
 20
0.0
  9
$LIMMAX
 10
12.0
 20
9.0
  9
$ORTHOMODE
 70
     0
  9
$REGENMODE
 70
     1
  9
$FILLMODE
 70
     1
  9
$QTEXTMODE
 70
     0
  9
$MIRRTEXT
 70
     0
  9
$DRAGMODE
 70
     2
  9
$LTSCALE
 40
1.0
  9
$OSMODE
 70
    37
  9
$ATTMODE
 70
     1
  9
$TEXTSIZE
 40
0.2
  9
$TRACEWID
 40
0.05
  9
$TEXTSTYLE
  7
STANDARD
  9
$CLAYER
  8
0
  9
$CELTYPE
  6
BYLAYER
  9
$CECOLOR
 62
   256
  9
$DIMSCALE
 40
1.0
  9
$DIMASZ
 40
0.18
  9
$DIMEXO
 40
0.0625
  9
$DIMDLI
 40
0.38
  9
$DIMRND
 40
0.0
  9
$DIMDLE
 40
0.0
  9
$DIMEXE
 40
0.18
  9
$DIMTP
 40
0.0
  9
$DIMTM
 40
0.0
  9
$DIMTXT
 40
0.18
  9
$DIMCEN
 40
0.09
  9
$DIMTSZ
 40
0.0
  9
$DIMTOL
 70
     0
  9
$DIMLIM
 70
     0
  9
$DIMTIH
 70
     1
  9
$DIMTOH
 70
     1
  9
$DIMSE1
 70
     0
  9
$DIMSE2
 70
     0
  9
$DIMTAD
 70
     0
  9
$DIMZIN
 70
     0
  9
$DIMBLK
  1

  9
$DIMASO
 70
     1
  9
$DIMSHO
 70
     1
  9
$DIMPOST
  1

  9
$DIMAPOST
  1

  9
$DIMALT
 70
     0
  9
$DIMALTD
 70
     2
  9
$DIMALTF
 40
25.3999999999999986
  9
$DIMLFAC
 40
1.0
  9
$DIMTOFL
 70
     0
  9
$DIMTVP
 40
0.0
  9
$DIMTIX
 70
     0
  9
$DIMSOXD
 70
     0
  9
$DIMSAH
 70
     0
  9
$DIMBLK1
  1

  9
$DIMBLK2
  1

  9
$DIMSTYLE
  2
STANDARD
  9
$DIMCLRD
 70
     0
  9
$DIMCLRE
 70
     0
  9
$DIMCLRT
 70
     0
  9
$DIMTFAC
 40
1.0
  9
$DIMGAP
 40
0.09
  9
$LUNITS
 70
     2
  9
$LUPREC
 70
     4
  9
$SKETCHINC
 40
0.1
  9
$FILLETRAD
 40
0.0
  9
$AUNITS
 70
     0
  9
$AUPREC
 70
     0
  9
$MENU
  1
.
  9
$ELEVATION
 40
0.0
  9
$PELEVATION
 40
0.0
  9
$THICKNESS
 40
0.0
  9
$LIMCHECK
 70
     0
  9
$BLIPMODE
 70
     0
  9
$CHAMFERA
 40
0.0
  9
$CHAMFERB
 40
0.0
  9
$SKPOLY
 70
     0
  9
$TDCREATE
 40
2459785.8672453709878027
  9
$TDUPDATE
 40
2459785.8690046300180256
  9
$TDINDWG
 40
0.0016550926
  9
$TDUSRTIMER
 40
0.0016550926
  9
$USRTIMER
 70
     1
  9
$ANGBASE
 50
0.0
  9
$ANGDIR
 70
     0
  9
$PDMODE
 70
     0
  9
$PDSIZE
 40
0.0
  9
$PLINEWID
 40
0.0
  9
$COORDS
 70
     1
  9
$SPLFRAME
 70
     0
  9
$SPLINETYPE
 70
     6
  9
$SPLINESEGS
 70
     8
  9
$ATTDIA
 70
     1
  9
$ATTREQ
 70
     1
  9
$HANDLING
 70
     1
  9
$HANDSEED
  5
3AB
  9
$SURFTAB1
 70
     6
  9
$SURFTAB2
 70
     6
  9
$SURFTYPE
 70
     6
  9
$SURFU
 70
     6
  9
$SURFV
 70
     6
  9
$UCSNAME
  2

  9
$UCSORG
 10
0.0
 20
0.0
 30
0.0
  9
$UCSXDIR
 10
1.0
 20
0.0
 30
0.0
  9
$UCSYDIR
 10
0.0
 20
1.0
 30
0.0
  9
$PUCSNAME
  2

  9
$PUCSORG
 10
0.0
 20
0.0
 30
0.0
  9
$PUCSXDIR
 10
1.0
 20
0.0
 30
0.0
  9
$PUCSYDIR
 10
0.0
 20
1.0
 30
0.0
  9
$USERI1
 70
     0
  9
$USERI2
 70
     0
  9
$USERI3
 70
     0
  9
$USERI4
 70
     0
  9
$USERI5
 70
     0
  9
$USERR1
 40
0.0
  9
$USERR2
 40
0.0
  9
$USERR3
 40
0.0
  9
$USERR4
 40
0.0
  9
$USERR5
 40
0.0
  9
$WORLDVIEW
 70
     1
  9
$SHADEDGE
 70
     3
  9
$SHADEDIF
 70
    70
  9
$TILEMODE
 70
     1
  9
$MAXACTVP
 70
    64
  9
$PLIMCHECK
 70
     0
  9
$PEXTMIN
 10
1.0000000000000000E+20
 20
1.0000000000000000E+20
 30
1.0000000000000000E+20
  9
$PEXTMAX
 10
-1.0000000000000000E+20
 20
-1.0000000000000000E+20
 30
-1.0000000000000000E+20
  9
$PLIMMIN
 10
0.0
 20
0.0
  9
$PLIMMAX
 10
12.0
 20
9.0
  9
$UNITMODE
 70
     0
  9
$VISRETAIN
 70
     1
  9
$PLINEGEN
 70
     0
  9
$PSLTSCALE
 70
     1
  0
ENDSEC
  0
SECTION
  2
TABLES
  0
TABLE
  2
VPORT
 70
     1
  0
VPORT
  2
*ACTIVE
 70
     0
 10
0.0
 20
0.0
 11
1.0
 21
1.0
 12
2.6236331482950841
 22
-115.7299687291741037
 13
0.0
 23
0.0
 14
1.0
 24
1.0
 15
0.0
 25
0.0
 16
0.0
 26
0.0
 36
1.0
 17
104.9999970067631949
 27
-148.5000119155930918
 37
0.0
 40
12.7598275474595297
 41
2.4166666666666661
 42
50.0
 43
0.0
 44
0.0
 50
0.0
 51
0.0
 71
     0
 72
   100
 73
     1
 74
     1
 75
     0
 76
     0
 77
     0
 78
     0
  0
ENDTAB
  0
TABLE
  2
LTYPE
 70
     1
  0
LTYPE
  2
CONTINUOUS
 70
     0
  3
Solid line
 72
    65
 73
     0
 40
0.0
  0
ENDTAB
  0
TABLE
  2
LAYER
 70
     2
  0
LAYER
  2
0
 70
     0
 62
     7
  6
CONTINUOUS
  0
LAYER
  2
Í¼²ã_1
 70
     0
 62
     7
  6
CONTINUOUS
  0
ENDTAB
  0
TABLE
  2
STYLE
 70
     2
  0
STYLE
  2
STANDARD
 70
     0
 40
0.0
 41
1.0
 50
0.0
 71
     0
 42
0.2
  3
txt
  4

  0
STYLE
  2
ANNOTATIVE
 70
     0
 40
0.0
 41
1.0
 50
0.0
 71
     0
 42
0.2
  3
txt
  4

  0
ENDTAB
  0
TABLE
  2
VIEW
 70
     0
  0
ENDTAB
  0
TABLE
  2
UCS
 70
     0
  0
ENDTAB
  0
TABLE
  2
APPID
 70
     4
  0
APPID
  2
ACAD
 70
     0
  0
APPID
  2
ACADANNOTATIVE
 70
     0
  0
APPID
  2
ACAD_NAV_VCDISPLAY
 70
     0
  0
APPID
  2
ACAD_MLEADERVER
 70
     0
  0
ENDTAB
  0
TABLE
  2
DIMSTYLE
 70
     2
  0
DIMSTYLE
  2
STANDARD
 70
     0
  3

  4

  5

  6

  7

 40
1.0
 41
0.18
 42
0.0625
 43
0.38
 44
0.18
 45
0.0
 46
0.0
 47
0.0
 48
0.0
140
0.18
141
0.09
142
0.0
143
25.3999999999999986
144
1.0
145
0.0
146
1.0
147
0.09
 71
     0
 72
     0
 73
     1
 74
     1
 75
     0
 76
     0
 77
     0
 78
     0
170
     0
171
     2
172
     0
173
     0
174
     0
175
     0
176
     0
177
     0
178
     0
  0
DIMSTYLE
  2
ANNOTATIVE
 70
     0
  3

  4

  5

  6

  7

 40
1.0
 41
0.18
 42
0.0625
 43
0.38
 44
0.18
 45
0.0
 46
0.0
 47
0.0
 48
0.0
140
0.18
141
0.09
142
0.0
143
25.3999999999999986
144
1.0
145
0.0
146
1.0
147
0.09
 71
     0
 72
     0
 73
     1
 74
     1
 75
     0
 76
     0
 77
     0
 78
     0
170
     0
171
     2
172
     0
173
     0
174
     0
175
     0
176
     0
177
     0
178
     0
  0
ENDTAB
  0
ENDSEC
  0
SECTION
  2
BLOCKS
  0
BLOCK
  8
0
  2
$MODEL_SPACE
 70
     0
 10
0.0
 20
0.0
 30
0.0
  3
$MODEL_SPACE
  1

  0
ENDBLK
  5
72
  8
0
  0
BLOCK
 67
     1
  8
0
  2
$PAPER_SPACE
 70
     0
 10
0.0
 20
0.0
 30
0.0
  3
$PAPER_SPACE
  1

  0
ENDBLK
  5
6E
 67
     1
  8
0
  0
BLOCK
  8
0
  2
BLOCK_0
 70
     0
 10
0.0
 20
0.0
 30
0.0
  3
BLOCK_0
  1

  0
INSERT
  5
7E
  8
Í¼²ã_1
  2
BLOCK_1
 10
0.0
 20
0.0
 30
0.0
  0
INSERT
  5
BD
  8
Í¼²ã_1
  2
BLOCK_2
 10
0.0
 20
0.0
 30
0.0
  0
INSERT
  5
FC
  8
Í¼²ã_1
  2
BLOCK_3
 10
0.0
 20
0.0
 30
0.0
  0
INSERT
  5
132
  8
Í¼²ã_1
  2
BLOCK_4
 10
0.0
 20
0.0
 30
0.0
  0
INSERT
  5
168
  8
Í¼²ã_1
  2
BLOCK_5
 10
0.0
 20
0.0
 30
0.0
  0
INSERT
  5
19A
  8
Í¼²ã_1
  2
BLOCK_6
 10
0.0
 20
0.0
 30
0.0
  0
INSERT
  5
1CC
  8
Í¼²ã_1
  2
BLOCK_7
 10
0.0
 20
0.0
 30
0.0
  0
INSERT
  5
1F7
  8
Í¼²ã_1
  2
BLOCK_8
 10
0.0
 20
0.0
 30
0.0
  0
INSERT
  5
222
  8
Í¼²ã_1
  2
BLOCK_9
 10
0.0
 20
0.0
 30
0.0
  0
INSERT
  5
270
  8
Í¼²ã_1
  2
BLOCK_10
 10
0.0
 20
0.0
 30
0.0
  0
INSERT
  5
2B7
  8
Í¼²ã_1
  2
BLOCK_11
 10
0.0
 20
0.0
 30
0.0
  0
INSERT
  5
305
  8
Í¼²ã_1
  2
BLOCK_12
 10
0.0
 20
0.0
 30
0.0
  0
ENDBLK
  5
7C
  8
0
  0
BLOCK
  8
0
  2
BLOCK_1
 70
     0
 10
0.0
 20
0.0
 30
0.0
  3
BLOCK_1
  1

  0
CIRCLE
  5
81
  8
Í¼²ã_1
 62
   250
 10
103.0687944186780953
 20
-32.6513704561703335
 30
0.0
 40
0.2645833332673078
  0
CIRCLE
  5
82
  8
Í¼²ã_1
 62
   250
 10
103.8625444184797004
 20
-32.6513704561703335
 30
0.0
 40
0.2645833332673078
  0
CIRCLE
  5
83
  8
Í¼²ã_1
 62
   250
 10
104.6562944182813055
 20
-32.6513704561703335
 30
0.0
 40
0.2645833332673078
  0
CIRCLE
  5
84
  8
Í¼²ã_1
 62
   250
 10
105.4500444180827969
 20
-32.6513704561703335
 30
0.0
 40
0.2645833332673078
  0
CIRCLE
  5
85
  8
Í¼²ã_1
 62
   250
 10
106.243794417884402
 20
-32.6513704561703335
 30
0.0
 40
0.2645833332673078
  0
CIRCLE
  5
86
  8
Í¼²ã_1
 62
   250
 10
107.0375444176858934
 20
-32.6513704561703335
 30
0.0
 40
0.2645833332673078
  0
CIRCLE
  5
87
  8
Í¼²ã_1
 62
   250
 10
107.8312944174874985
 20
-32.6513704561703335
 30
0.0
 40
0.2645833332673078
  0
CIRCLE
  5
88
  8
Í¼²ã_1
 62
   250
 10
103.4656694185788979
 20
-31.9512776646787309
 30
0.0
 40
0.2645833332672677
  0
CIRCLE
  5
89
  8
Í¼²ã_1
 62
   250
 10
104.259419418380503
 20
-31.9512776646787309
 30
0.0
 40
0.2645833332672677
  0
CIRCLE
  5
8A
  8
Í¼²ã_1
 62
   250
 10
105.0531694181819944
 20
-31.9512776646787309
 30
0.0
 40
0.2645833332672677
  0
CIRCLE
  5
8B
  8
Í¼²ã_1
 62
   250
 10
105.8469194179835995
 20
-31.9512776646787309
 30
0.0
 40
0.2645833332672677
  0
CIRCLE
  5
8C
  8
Í¼²ã_1
 62
   250
 10
106.6406694177852046
 20
-31.9512776646787309
 30
0.0
 40
0.2645833332672677
  0
CIRCLE
  5
8D
  8
Í¼²ã_1
 62
   250
 10
107.434419417586696
 20
-31.9512776646787309
 30
0.0
 40
0.2645833332672677
  0
CIRCLE
  5
8E
  8
Í¼²ã_1
 62
   250
 10
103.0687944186780953
 20
-31.2511848731870501
 30
0.0
 40
0.2645833332672677
  0
CIRCLE
  5
8F
  8
Í¼²ã_1
 62
   250
 10
103.8625444184797004
 20
-31.2511848731870501
 30
0.0
 40
0.2645833332672677
  0
CIRCLE
  5
90
  8
Í¼²ã_1
 62
   250
 10
104.6562944182813055
 20
-31.2511848731870501
 30
0.0
 40
0.2645833332672677
  0
CIRCLE
  5
91
  8
Í¼²ã_1
 62
   250
 10
105.4500444180827969
 20
-31.2511848731870501
 30
0.0
 40
0.2645833332672677
  0
CIRCLE
  5
92
  8
Í¼²ã_1
 62
   250
 10
106.243794417884402
 20
-31.2511848731870501
 30
0.0
 40
0.2645833332672677
  0
CIRCLE
  5
93
  8
Í¼²ã_1
 62
   250
 10
107.0375444176858934
 20
-31.2511848731870501
 30
0.0
 40
0.2645833332672677
  0
CIRCLE
  5
94
  8
Í¼²ã_1
 62
   250
 10
107.8312944174874985
 20
-31.2511848731870501
 30
0.0
 40
0.2645833332672677
  0
CIRCLE
  5
95
  8
Í¼²ã_1
 62
   250
 10
103.4656694185788979
 20
-30.551092081695451
 30
0.0
 40
0.2645833332672276
  0
CIRCLE
  5
96
  8
Í¼²ã_1
 62
   250
 10
104.259419418380503
 20
-30.551092081695451
 30
0.0
 40
0.2645833332672276
  0
CIRCLE
  5
97
  8
Í¼²ã_1
 62
   250
 10
105.0531694181819944
 20
-30.551092081695451
 30
0.0
 40
0.2645833332672276
  0
CIRCLE
  5
98
  8
Í¼²ã_1
 62
   250
 10
105.8469194179835995
 20
-30.551092081695451
 30
0.0
 40
0.2645833332672276
  0
CIRCLE
  5
99
  8
Í¼²ã_1
 62
   250
 10
106.6406694177852046
 20
-30.551092081695451
 30
0.0
 40
0.2645833332672276
  0
CIRCLE
  5
9A
  8
Í¼²ã_1
 62
   250
 10
107.434419417586696
 20
-30.551092081695451
 30
0.0
 40
0.2645833332672276
  0
CIRCLE
  5
9B
  8
Í¼²ã_1
 62
   250
 10
103.0687944186780953
 20
-29.8509992902037808
 30
0.0
 40
0.2645833332672276
  0
CIRCLE
  5
9C
  8
Í¼²ã_1
 62
   250
 10
103.8625444184797004
 20
-29.8509992902037808
 30
0.0
 40
0.2645833332672276
  0
CIRCLE
  5
9D
  8
Í¼²ã_1
 62
   250
 10
104.6562944182813055
 20
-29.8509992902037808
 30
0.0
 40
0.2645833332672276
  0
CIRCLE
  5
9E
  8
Í¼²ã_1
 62
   250
 10
105.4500444180827969
 20
-29.8509992902037808
 30
0.0
 40
0.2645833332672276
  0
CIRCLE
  5
9F
  8
Í¼²ã_1
 62
   250
 10
106.243794417884402
 20
-29.8509992902037808
 30
0.0
 40
0.2645833332672276
  0
CIRCLE
  5
A0
  8
Í¼²ã_1
 62
   250
 10
107.0375444176858934
 20
-29.8509992902037808
 30
0.0
 40
0.2645833332672276
  0
CIRCLE
  5
A1
  8
Í¼²ã_1
 62
   250
 10
107.8312944174874985
 20
-29.8509992902037808
 30
0.0
 40
0.2645833332672276
  0
CIRCLE
  5
A2
  8
Í¼²ã_1
 62
   250
 10
103.4656694185788979
 20
-29.1509064987121
 30
0.0
 40
0.2645833332672276
  0
CIRCLE
  5
A3
  8
Í¼²ã_1
 62
   250
 10
104.259419418380503
 20
-29.1509064987121
 30
0.0
 40
0.2645833332672276
  0
CIRCLE
  5
A4
  8
Í¼²ã_1
 62
   250
 10
105.0531694181819944
 20
-29.1509064987121
 30
0.0
 40
0.2645833332672276
  0
CIRCLE
  5
A5
  8
Í¼²ã_1
 62
   250
 10
105.8469194179835995
 20
-29.1509064987121
 30
0.0
 40
0.2645833332672276
  0
CIRCLE
  5
A6
  8
Í¼²ã_1
 62
   250
 10
106.6406694177852046
 20
-29.1509064987121
 30
0.0
 40
0.2645833332672276
  0
CIRCLE
  5
A7
  8
Í¼²ã_1
 62
   250
 10
107.434419417586696
 20
-29.1509064987121
 30
0.0
 40
0.2645833332672276
  0
CIRCLE
  5
A8
  8
Í¼²ã_1
 62
   250
 10
103.0687944186780953
 20
-28.450813707220501
 30
0.0
 40
0.2645833332671875
  0
CIRCLE
  5
A9
  8
Í¼²ã_1
 62
   250
 10
103.8625444184797004
 20
-28.450813707220501
 30
0.0
 40
0.2645833332671875
  0
CIRCLE
  5
AA
  8
Í¼²ã_1
 62
   250
 10
104.6562944182813055
 20
-28.450813707220501
 30
0.0
 40
0.2645833332671875
  0
CIRCLE
  5
AB
  8
Í¼²ã_1
 62
   250
 10
105.4500444180827969
 20
-28.450813707220501
 30
0.0
 40
0.2645833332671875
  0
CIRCLE
  5
AC
  8
Í¼²ã_1
 62
   250
 10
106.243794417884402
 20
-28.450813707220501
 30
0.0
 40
0.2645833332671875
  0
CIRCLE
  5
AD
  8
Í¼²ã_1
 62
   250
 10
107.0375444176858934
 20
-28.450813707220501
 30
0.0
 40
0.2645833332671875
  0
CIRCLE
  5
AE
  8
Í¼²ã_1
 62
   250
 10
107.8312944174874985
 20
-28.450813707220501
 30
0.0
 40
0.2645833332671875
  0
CIRCLE
  5
AF
  8
Í¼²ã_1
 62
   250
 10
103.4656694185788979
 20
-27.7507209157288983
 30
0.0
 40
0.2645833332673078
  0
CIRCLE
  5
B0
  8
Í¼²ã_1
 62
   250
 10
104.259419418380503
 20
-27.7507209157288983
 30
0.0
 40
0.2645833332673078
  0
CIRCLE
  5
B1
  8
Í¼²ã_1
 62
   250
 10
105.0531694181819944
 20
-27.7507209157288983
 30
0.0
 40
0.2645833332673078
  0
CIRCLE
  5
B2
  8
Í¼²ã_1
 62
   250
 10
105.8469194179835995
 20
-27.7507209157288983
 30
0.0
 40
0.2645833332673078
  0
CIRCLE
  5
B3
  8
Í¼²ã_1
 62
   250
 10
106.6406694177852046
 20
-27.7507209157288983
 30
0.0
 40
0.2645833332673078
  0
CIRCLE
  5
B4
  8
Í¼²ã_1
 62
   250
 10
107.434419417586696
 20
-27.7507209157288983
 30
0.0
 40
0.2645833332673078
  0
CIRCLE
  5
B5
  8
Í¼²ã_1
 62
   250
 10
103.0687944186780953
 20
-27.0506281242372211
 30
0.0
 40
0.2645833332673078
  0
CIRCLE
  5
B6
  8
Í¼²ã_1
 62
   250
 10
103.8625444184797004
 20
-27.0506281242372211
 30
0.0
 40
0.2645833332673078
  0
CIRCLE
  5
B7
  8
Í¼²ã_1
 62
   250
 10
104.6562944182813055
 20
-27.0506281242372211
 30
0.0
 40
0.2645833332673078
  0
CIRCLE
  5
B8
  8
Í¼²ã_1
 62
   250
 10
105.4500444180827969
 20
-27.0506281242372211
 30
0.0
 40
0.2645833332673078
  0
CIRCLE
  5
B9
  8
Í¼²ã_1
 62
   250
 10
106.243794417884402
 20
-27.0506281242372211
 30
0.0
 40
0.2645833332673078
  0
CIRCLE
  5
BA
  8
Í¼²ã_1
 62
   250
 10
107.0375444176858934
 20
-27.0506281242372211
 30
0.0
 40
0.2645833332673078
  0
CIRCLE
  5
BB
  8
Í¼²ã_1
 62
   250
 10
107.8312944174874985
 20
-27.0506281242372211
 30
0.0
 40
0.2645833332673078
  0
ENDBLK
  5
80
  8
0
  0
BLOCK
  8
0
  2
BLOCK_2
 70
     0
 10
0.0
 20
0.0
 30
0.0
  3
BLOCK_2
  1

  0
CIRCLE
  5
C0
  8
Í¼²ã_1
 62
   250
 10
103.059644418944103
 20
-58.4102116130360898
 30
0.0
 40
0.1999999999499545
  0
CIRCLE
  5
C1
  8
Í¼²ã_1
 62
   250
 10
103.8564444187446014
 20
-58.4102116130360898
 30
0.0
 40
0.1999999999497941
  0
CIRCLE
  5
C2
  8
Í¼²ã_1
 62
   250
 10
104.6532444185451993
 20
-58.4102116130360898
 30
0.0
 40
0.1999999999497941
  0
CIRCLE
  5
C3
  8
Í¼²ã_1
 62
   250
 10
105.4500444183457972
 20
-58.4102116130360898
 30
0.0
 40
0.1999999999498342
  0
CIRCLE
  5
C4
  8
Í¼²ã_1
 62
   250
 10
106.2468444181464946
 20
-58.4102116130360898
 30
0.0
 40
0.1999999999498743
  0
CIRCLE
  5
C5
  8
Í¼²ã_1
 62
   250
 10
107.0436444179472062
 20
-58.4102116130360898
 30
0.0
 40
0.1999999999497941
  0
CIRCLE
  5
C6
  8
Í¼²ã_1
 62
   250
 10
107.8404444177470936
 20
-58.4102116130360898
 30
0.0
 40
0.1999999999496337
  0
CIRCLE
  5
C7
  8
Í¼²ã_1
 62
   250
 10
103.4580444188441959
 20
-57.7090076132116465
 30
0.0
 40
0.1999999999499946
  0
CIRCLE
  5
C8
  8
Í¼²ã_1
 62
   250
 10
104.2548444186447938
 20
-57.7090076132116465
 30
0.0
 40
0.1999999999499946
  0
CIRCLE
  5
C9
  8
Í¼²ã_1
 62
   250
 10
105.0516444184454059
 20
-57.7090076132116465
 30
0.0
 40
0.1999999999499946
  0
CIRCLE
  5
CA
  8
Í¼²ã_1
 62
   250
 10
105.8484444182462028
 20
-57.7090076132116465
 30
0.0
 40
0.1999999999501149
  0
CIRCLE
  5
CB
  8
Í¼²ã_1
 62
   250
 10
106.6452444180466017
 20
-57.7090076132116465
 30
0.0
 40
0.1999999999498743
  0
CIRCLE
  5
CC
  8
Í¼²ã_1
 62
   250
 10
107.4420444178471996
 20
-57.7090076132116465
 30
0.0
 40
0.1999999999500348
  0
CIRCLE
  5
CD
  8
Í¼²ã_1
 62
   250
 10
103.059644418944103
 20
-57.0078036133869688
 30
0.0
 40
0.1999999999499144
  0
CIRCLE
  5
CE
  8
Í¼²ã_1
 62
   250
 10
103.8564444187446014
 20
-57.0078036133869688
 30
0.0
 40
0.199999999949754
  0
CIRCLE
  5
CF
  8
Í¼²ã_1
 62
   250
 10
104.6532444185451993
 20
-57.0078036133869688
 30
0.0
 40
0.199999999949754
  0
CIRCLE
  5
D0
  8
Í¼²ã_1
 62
   250
 10
105.4500444183457972
 20
-57.0078036133869688
 30
0.0
 40
0.1999999999497941
  0
CIRCLE
  5
D1
  8
Í¼²ã_1
 62
   250
 10
106.2468444181464946
 20
-57.0078036133869688
 30
0.0
 40
0.1999999999498342
  0
CIRCLE
  5
D2
  8
Í¼²ã_1
 62
   250
 10
107.0436444179472062
 20
-57.0078036133869688
 30
0.0
 40
0.199999999949754
  0
CIRCLE
  5
D3
  8
Í¼²ã_1
 62
   250
 10
107.8404444177470936
 20
-57.0078036133869688
 30
0.0
 40
0.1999999999495936
  0
CIRCLE
  5
D4
  8
Í¼²ã_1
 62
   250
 10
103.4580444188441959
 20
-56.3065996135624403
 30
0.0
 40
0.1999999999498342
  0
CIRCLE
  5
D5
  8
Í¼²ã_1
 62
   250
 10
104.2548444186447938
 20
-56.3065996135624403
 30
0.0
 40
0.1999999999498342
  0
CIRCLE
  5
D6
  8
Í¼²ã_1
 62
   250
 10
105.0516444184454059
 20
-56.3065996135624403
 30
0.0
 40
0.1999999999498342
  0
CIRCLE
  5
D7
  8
Í¼²ã_1
 62
   250
 10
105.8484444182462028
 20
-56.3065996135624403
 30
0.0
 40
0.1999999999499545
  0
CIRCLE
  5
D8
  8
Í¼²ã_1
 62
   250
 10
106.6452444180466017
 20
-56.3065996135624403
 30
0.0
 40
0.1999999999497139
  0
CIRCLE
  5
D9
  8
Í¼²ã_1
 62
   250
 10
107.4420444178471996
 20
-56.3065996135624403
 30
0.0
 40
0.1999999999498743
  0
CIRCLE
  5
DA
  8
Í¼²ã_1
 62
   250
 10
103.059644418944103
 20
-55.6053956137381675
 30
0.0
 40
0.1999999999500347
  0
CIRCLE
  5
DB
  8
Í¼²ã_1
 62
   250
 10
103.8564444187446014
 20
-55.6053956137381675
 30
0.0
 40
0.1999999999498743
  0
CIRCLE
  5
DC
  8
Í¼²ã_1
 62
   250
 10
104.6532444185451993
 20
-55.6053956137381675
 30
0.0
 40
0.1999999999498743
  0
CIRCLE
  5
DD
  8
Í¼²ã_1
 62
   250
 10
105.4500444183457972
 20
-55.6053956137381675
 30
0.0
 40
0.1999999999499144
  0
CIRCLE
  5
DE
  8
Í¼²ã_1
 62
   250
 10
106.2468444181464946
 20
-55.6053956137381675
 30
0.0
 40
0.1999999999499545
  0
CIRCLE
  5
DF
  8
Í¼²ã_1
 62
   250
 10
107.0436444179472062
 20
-55.6053956137381675
 30
0.0
 40
0.1999999999498743
  0
CIRCLE
  5
E0
  8
Í¼²ã_1
 62
   250
 10
107.8404444177470936
 20
-55.6053956137381675
 30
0.0
 40
0.1999999999497139
  0
CIRCLE
  5
E1
  8
Í¼²ã_1
 62
   250
 10
103.4580444188441959
 20
-54.9041916139133335
 30
0.0
 40
0.1999999999497941
  0
CIRCLE
  5
E2
  8
Í¼²ã_1
 62
   250
 10
104.2548444186447938
 20
-54.9041916139133335
 30
0.0
 40
0.1999999999497941
  0
CIRCLE
  5
E3
  8
Í¼²ã_1
 62
   250
 10
105.0516444184454059
 20
-54.9041916139133335
 30
0.0
 40
0.1999999999497941
  0
CIRCLE
  5
E4
  8
Í¼²ã_1
 62
   250
 10
105.8484444182462028
 20
-54.9041916139133335
 30
0.0
 40
0.1999999999499144
  0
CIRCLE
  5
E5
  8
Í¼²ã_1
 62
   250
 10
106.6452444180466017
 20
-54.9041916139133335
 30
0.0
 40
0.1999999999496737
  0
CIRCLE
  5
E6
  8
Í¼²ã_1
 62
   250
 10
107.4420444178471996
 20
-54.9041916139133335
 30
0.0
 40
0.1999999999498342
  0
CIRCLE
  5
E7
  8
Í¼²ã_1
 62
   250
 10
103.059644418944103
 20
-54.2029876140887978
 30
0.0
 40
0.1999999999499545
  0
CIRCLE
  5
E8
  8
Í¼²ã_1
 62
   250
 10
103.8564444187446014
 20
-54.2029876140887978
 30
0.0
 40
0.1999999999497941
  0
CIRCLE
  5
E9
  8
Í¼²ã_1
 62
   250
 10
104.6532444185451993
 20
-54.2029876140887978
 30
0.0
 40
0.1999999999497941
  0
CIRCLE
  5
EA
  8
Í¼²ã_1
 62
   250
 10
105.4500444183457972
 20
-54.2029876140887978
 30
0.0
 40
0.1999999999498342
  0
CIRCLE
  5
EB
  8
Í¼²ã_1
 62
   250
 10
106.2468444181464946
 20
-54.2029876140887978
 30
0.0
 40
0.1999999999498743
  0
CIRCLE
  5
EC
  8
Í¼²ã_1
 62
   250
 10
107.0436444179472062
 20
-54.2029876140887978
 30
0.0
 40
0.1999999999497941
  0
CIRCLE
  5
ED
  8
Í¼²ã_1
 62
   250
 10
107.8404444177470936
 20
-54.2029876140887978
 30
0.0
 40
0.1999999999496337
  0
CIRCLE
  5
EE
  8
Í¼²ã_1
 62
   250
 10
103.4580444188441959
 20
-53.501783614264518
 30
0.0
 40
0.1999999999499144
  0
CIRCLE
  5
EF
  8
Í¼²ã_1
 62
   250
 10
104.2548444186447938
 20
-53.501783614264518
 30
0.0
 40
0.1999999999499144
  0
CIRCLE
  5
F0
  8
Í¼²ã_1
 62
   250
 10
105.0516444184454059
 20
-53.501783614264518
 30
0.0
 40
0.1999999999499144
  0
CIRCLE
  5
F1
  8
Í¼²ã_1
 62
   250
 10
105.8484444182462028
 20
-53.501783614264518
 30
0.0
 40
0.1999999999500347
  0
CIRCLE
  5
F2
  8
Í¼²ã_1
 62
   250
 10
106.6452444180466017
 20
-53.501783614264518
 30
0.0
 40
0.1999999999497941
  0
CIRCLE
  5
F3
  8
Í¼²ã_1
 62
   250
 10
107.4420444178471996
 20
-53.501783614264518
 30
0.0
 40
0.1999999999499545
  0
CIRCLE
  5
F4
  8
Í¼²ã_1
 62
   250
 10
103.059644418944103
 20
-52.8005796144396911
 30
0.0
 40
0.1999999999499144
  0
CIRCLE
  5
F5
  8
Í¼²ã_1
 62
   250
 10
103.8564444187446014
 20
-52.8005796144396911
 30
0.0
 40
0.199999999949754
  0
CIRCLE
  5
F6
  8
Í¼²ã_1
 62
   250
 10
104.6532444185451993
 20
-52.8005796144396911
 30
0.0
 40
0.199999999949754
  0
CIRCLE
  5
F7
  8
Í¼²ã_1
 62
   250
 10
105.4500444183457972
 20
-52.8005796144396911
 30
0.0
 40
0.1999999999497941
  0
CIRCLE
  5
F8
  8
Í¼²ã_1
 62
   250
 10
106.2468444181464946
 20
-52.8005796144396911
 30
0.0
 40
0.1999999999498342
  0
CIRCLE
  5
F9
  8
Í¼²ã_1
 62
   250
 10
107.0436444179472062
 20
-52.8005796144396911
 30
0.0
 40
0.199999999949754
  0
CIRCLE
  5
FA
  8
Í¼²ã_1
 62
   250
 10
107.8404444177470936
 20
-52.8005796144396911
 30
0.0
 40
0.1999999999495936
  0
ENDBLK
  5
BF
  8
0
  0
BLOCK
  8
0
  2
BLOCK_3
 70
     0
 10
0.0
 20
0.0
 30
0.0
  3
BLOCK_3
  1

  0
CIRCLE
  5
FF
  8
Í¼²ã_1
 62
   250
 10
103.3395527519431027
 20
-82.7315268512589057
 30
0.0
 40
0.2645833332673078
  0
CIRCLE
  5
100
  8
Í¼²ã_1
 62
   250
 10
104.1333027517446936
 20
-82.7315268512589057
 30
0.0
 40
0.2645833332673078
  0
CIRCLE
  5
101
  8
Í¼²ã_1
 62
   250
 10
104.9270527515462987
 20
-82.7315268512589057
 30
0.0
 40
0.2645833332673078
  0
CIRCLE
  5
102
  8
Í¼²ã_1
 62
   250
 10
105.7208027513478044
 20
-82.7315268512589057
 30
0.0
 40
0.2645833332673078
  0
CIRCLE
  5
103
  8
Í¼²ã_1
 62
   250
 10
106.5145527511493952
 20
-82.7315268512589057
 30
0.0
 40
0.2645833332673078
  0
CIRCLE
  5
104
  8
Í¼²ã_1
 62
   250
 10
107.3083027509509009
 20
-82.7315268512589057
 30
0.0
 40
0.2645833332673078
  0
CIRCLE
  5
105
  8
Í¼²ã_1
 62
   250
 10
103.7364277518439053
 20
-82.0314340597673208
 30
0.0
 40
0.2645833332672677
  0
CIRCLE
  5
106
  8
Í¼²ã_1
 62
   250
 10
104.5301777516454962
 20
-82.0314340597673208
 30
0.0
 40
0.2645833332672677
  0
CIRCLE
  5
107
  8
Í¼²ã_1
 62
   250
 10
105.3239277514470018
 20
-82.0314340597673208
 30
0.0
 40
0.2645833332672677
  0
CIRCLE
  5
108
  8
Í¼²ã_1
 62
   250
 10
106.1176777512486069
 20
-82.0314340597673208
 30
0.0
 40
0.2645833332672677
  0
CIRCLE
  5
109
  8
Í¼²ã_1
 62
   250
 10
106.9114277510501978
 20
-82.0314340597673208
 30
0.0
 40
0.2645833332672677
  0
CIRCLE
  5
10A
  8
Í¼²ã_1
 62
   250
 10
103.3395527519431027
 20
-81.3313412682756507
 30
0.0
 40
0.2645833332672677
  0
CIRCLE
  5
10B
  8
Í¼²ã_1
 62
   250
 10
104.1333027517446936
 20
-81.3313412682756507
 30
0.0
 40
0.2645833332672677
  0
CIRCLE
  5
10C
  8
Í¼²ã_1
 62
   250
 10
104.9270527515462987
 20
-81.3313412682756507
 30
0.0
 40
0.2645833332672677
  0
CIRCLE
  5
10D
  8
Í¼²ã_1
 62
   250
 10
105.7208027513478044
 20
-81.3313412682756507
 30
0.0
 40
0.2645833332672677
  0
CIRCLE
  5
10E
  8
Í¼²ã_1
 62
   250
 10
106.5145527511493952
 20
-81.3313412682756507
 30
0.0
 40
0.2645833332672677
  0
CIRCLE
  5
10F
  8
Í¼²ã_1
 62
   250
 10
107.3083027509509009
 20
-81.3313412682756507
 30
0.0
 40
0.2645833332672677
  0
CIRCLE
  5
110
  8
Í¼²ã_1
 62
   250
 10
103.7364277518439053
 20
-80.6312484767840516
 30
0.0
 40
0.2645833332672276
  0
CIRCLE
  5
111
  8
Í¼²ã_1
 62
   250
 10
104.5301777516454962
 20
-80.6312484767840516
 30
0.0
 40
0.2645833332672276
  0
CIRCLE
  5
112
  8
Í¼²ã_1
 62
   250
 10
105.3239277514470018
 20
-80.6312484767840516
 30
0.0
 40
0.2645833332672276
  0
CIRCLE
  5
113
  8
Í¼²ã_1
 62
   250
 10
106.1176777512486069
 20
-80.6312484767840516
 30
0.0
 40
0.2645833332672276
  0
CIRCLE
  5
114
  8
Í¼²ã_1
 62
   250
 10
106.9114277510501978
 20
-80.6312484767840516
 30
0.0
 40
0.2645833332672276
  0
CIRCLE
  5
115
  8
Í¼²ã_1
 62
   250
 10
103.3395527519431027
 20
-79.9311556852923673
 30
0.0
 40
0.2645833332672276
  0
CIRCLE
  5
116
  8
Í¼²ã_1
 62
   250
 10
104.1333027517446936
 20
-79.9311556852923673
 30
0.0
 40
0.2645833332672276
  0
CIRCLE
  5
117
  8
Í¼²ã_1
 62
   250
 10
104.9270527515462987
 20
-79.9311556852923673
 30
0.0
 40
0.2645833332672276
  0
CIRCLE
  5
118
  8
Í¼²ã_1
 62
   250
 10
105.7208027513478044
 20
-79.9311556852923673
 30
0.0
 40
0.2645833332672276
  0
CIRCLE
  5
119
  8
Í¼²ã_1
 62
   250
 10
106.5145527511493952
 20
-79.9311556852923673
 30
0.0
 40
0.2645833332672276
  0
CIRCLE
  5
11A
  8
Í¼²ã_1
 62
   250
 10
107.3083027509509009
 20
-79.9311556852923673
 30
0.0
 40
0.2645833332672276
  0
CIRCLE
  5
11B
  8
Í¼²ã_1
 62
   250
 10
103.7364277518439053
 20
-79.2310628938006829
 30
0.0
 40
0.2645833332672276
  0
CIRCLE
  5
11C
  8
Í¼²ã_1
 62
   250
 10
104.5301777516454962
 20
-79.2310628938006829
 30
0.0
 40
0.2645833332672276
  0
CIRCLE
  5
11D
  8
Í¼²ã_1
 62
   250
 10
105.3239277514470018
 20
-79.2310628938006829
 30
0.0
 40
0.2645833332672276
  0
CIRCLE
  5
11E
  8
Í¼²ã_1
 62
   250
 10
106.1176777512486069
 20
-79.2310628938006829
 30
0.0
 40
0.2645833332672276
  0
CIRCLE
  5
11F
  8
Í¼²ã_1
 62
   250
 10
106.9114277510501978
 20
-79.2310628938006829
 30
0.0
 40
0.2645833332672276
  0
CIRCLE
  5
120
  8
Í¼²ã_1
 62
   250
 10
103.3395527519431027
 20
-78.530970102309098
 30
0.0
 40
0.2645833332671875
  0
CIRCLE
  5
121
  8
Í¼²ã_1
 62
   250
 10
104.1333027517446936
 20
-78.530970102309098
 30
0.0
 40
0.2645833332671875
  0
CIRCLE
  5
122
  8
Í¼²ã_1
 62
   250
 10
104.9270527515462987
 20
-78.530970102309098
 30
0.0
 40
0.2645833332671875
  0
CIRCLE
  5
123
  8
Í¼²ã_1
 62
   250
 10
105.7208027513478044
 20
-78.530970102309098
 30
0.0
 40
0.2645833332671875
  0
CIRCLE
  5
124
  8
Í¼²ã_1
 62
   250
 10
106.5145527511493952
 20
-78.530970102309098
 30
0.0
 40
0.2645833332671875
  0
CIRCLE
  5
125
  8
Í¼²ã_1
 62
   250
 10
107.3083027509509009
 20
-78.530970102309098
 30
0.0
 40
0.2645833332671875
  0
CIRCLE
  5
126
  8
Í¼²ã_1
 62
   250
 10
103.7364277518439053
 20
-77.8308773108174137
 30
0.0
 40
0.2645833332671875
  0
CIRCLE
  5
127
  8
Í¼²ã_1
 62
   250
 10
104.5301777516454962
 20
-77.8308773108174137
 30
0.0
 40
0.2645833332671875
  0
CIRCLE
  5
128
  8
Í¼²ã_1
 62
   250
 10
105.3239277514470018
 20
-77.8308773108174137
 30
0.0
 40
0.2645833332671875
  0
CIRCLE
  5
129
  8
Í¼²ã_1
 62
   250
 10
106.1176777512486069
 20
-77.8308773108174137
 30
0.0
 40
0.2645833332671875
  0
CIRCLE
  5
12A
  8
Í¼²ã_1
 62
   250
 10
106.9114277510501978
 20
-77.8308773108174137
 30
0.0
 40
0.2645833332671875
  0
CIRCLE
  5
12B
  8
Í¼²ã_1
 62
   250
 10
103.3395527519431027
 20
-77.130784519325573
 30
0.0
 40
0.2645833332674282
  0
CIRCLE
  5
12C
  8
Í¼²ã_1
 62
   250
 10
104.1333027517446936
 20
-77.130784519325573
 30
0.0
 40
0.2645833332674282
  0
CIRCLE
  5
12D
  8
Í¼²ã_1
 62
   250
 10
104.9270527515462987
 20
-77.130784519325573
 30
0.0
 40
0.2645833332674282
  0
CIRCLE
  5
12E
  8
Í¼²ã_1
 62
   250
 10
105.7208027513478044
 20
-77.130784519325573
 30
0.0
 40
0.2645833332674282
  0
CIRCLE
  5
12F
  8
Í¼²ã_1
 62
   250
 10
106.5145527511493952
 20
-77.130784519325573
 30
0.0
 40
0.2645833332674282
  0
CIRCLE
  5
130
  8
Í¼²ã_1
 62
   250
 10
107.3083027509509009
 20
-77.130784519325573
 30
0.0
 40
0.2645833332674282
  0
ENDBLK
  5
FE
  8
0
  0
BLOCK
  8
0
  2
BLOCK_4
 70
     0
 10
0.0
 20
0.0
 30
0.0
  3
BLOCK_4
  1

  0
CIRCLE
  5
135
  8
Í¼²ã_1
 62
   250
 10
102.7335277523582988
 20
-104.5612434274331974
 30
0.0
 40
0.1999999999499545
  0
CIRCLE
  5
136
  8
Í¼²ã_1
 62
   250
 10
103.5303277521588967
 20
-104.5612434274331974
 30
0.0
 40
0.1999999999497941
  0
CIRCLE
  5
137
  8
Í¼²ã_1
 62
   250
 10
104.3271277519594946
 20
-104.5612434274331974
 30
0.0
 40
0.1999999999497941
  0
CIRCLE
  5
138
  8
Í¼²ã_1
 62
   250
 10
105.1239277517601067
 20
-104.5612434274331974
 30
0.0
 40
0.1999999999498342
  0
CIRCLE
  5
139
  8
Í¼²ã_1
 62
   250
 10
105.9207277515607046
 20
-104.5612434274331974
 30
0.0
 40
0.1999999999498743
  0
CIRCLE
  5
13A
  8
Í¼²ã_1
 62
   250
 10
106.7175277513615015
 20
-104.5612434274331974
 30
0.0
 40
0.1999999999497941
  0
CIRCLE
  5
13B
  8
Í¼²ã_1
 62
   250
 10
103.1319277522585054
 20
-103.8600394276087968
 30
0.0
 40
0.1999999999499946
  0
CIRCLE
  5
13C
  8
Í¼²ã_1
 62
   250
 10
103.9287277520591033
 20
-103.8600394276087968
 30
0.0
 40
0.1999999999499946
  0
CIRCLE
  5
13D
  8
Í¼²ã_1
 62
   250
 10
104.7255277518597012
 20
-103.8600394276087968
 30
0.0
 40
0.1999999999499946
  0
CIRCLE
  5
13E
  8
Í¼²ã_1
 62
   250
 10
105.5223277516604981
 20
-103.8600394276087968
 30
0.0
 40
0.1999999999501149
  0
CIRCLE
  5
13F
  8
Í¼²ã_1
 62
   250
 10
106.319127751460897
 20
-103.8600394276087968
 30
0.0
 40
0.1999999999498743
  0
CIRCLE
  5
140
  8
Í¼²ã_1
 62
   250
 10
102.7335277523582988
 20
-103.1588354277840978
 30
0.0
 40
0.1999999999499144
  0
CIRCLE
  5
141
  8
Í¼²ã_1
 62
   250
 10
103.5303277521588967
 20
-103.1588354277840978
 30
0.0
 40
0.199999999949754
  0
CIRCLE
  5
142
  8
Í¼²ã_1
 62
   250
 10
104.3271277519594946
 20
-103.1588354277840978
 30
0.0
 40
0.199999999949754
  0
CIRCLE
  5
143
  8
Í¼²ã_1
 62
   250
 10
105.1239277517601067
 20
-103.1588354277840978
 30
0.0
 40
0.1999999999497941
  0
CIRCLE
  5
144
  8
Í¼²ã_1
 62
   250
 10
105.9207277515607046
 20
-103.1588354277840978
 30
0.0
 40
0.1999999999498342
  0
CIRCLE
  5
145
  8
Í¼²ã_1
 62
   250
 10
106.7175277513615015
 20
-103.1588354277840978
 30
0.0
 40
0.199999999949754
  0
CIRCLE
  5
146
  8
Í¼²ã_1
 62
   250
 10
103.1319277522585054
 20
-102.4576314279595977
 30
0.0
 40
0.1999999999498342
  0
CIRCLE
  5
147
  8
Í¼²ã_1
 62
   250
 10
103.9287277520591033
 20
-102.4576314279595977
 30
0.0
 40
0.1999999999498342
  0
CIRCLE
  5
148
  8
Í¼²ã_1
 62
   250
 10
104.7255277518597012
 20
-102.4576314279595977
 30
0.0
 40
0.1999999999498342
  0
CIRCLE
  5
149
  8
Í¼²ã_1
 62
   250
 10
105.5223277516604981
 20
-102.4576314279595977
 30
0.0
 40
0.1999999999499545
  0
CIRCLE
  5
14A
  8
Í¼²ã_1
 62
   250
 10
106.319127751460897
 20
-102.4576314279595977
 30
0.0
 40
0.1999999999497139
  0
CIRCLE
  5
14B
  8
Í¼²ã_1
 62
   250
 10
102.7335277523582988
 20
-101.756427428135197
 30
0.0
 40
0.1999999999500748
  0
CIRCLE
  5
14C
  8
Í¼²ã_1
 62
   250
 10
103.5303277521588967
 20
-101.756427428135197
 30
0.0
 40
0.1999999999499144
  0
CIRCLE
  5
14D
  8
Í¼²ã_1
 62
   250
 10
104.3271277519594946
 20
-101.756427428135197
 30
0.0
 40
0.1999999999499144
  0
CIRCLE
  5
14E
  8
Í¼²ã_1
 62
   250
 10
105.1239277517601067
 20
-101.756427428135197
 30
0.0
 40
0.1999999999499545
  0
CIRCLE
  5
14F
  8
Í¼²ã_1
 62
   250
 10
105.9207277515607046
 20
-101.756427428135197
 30
0.0
 40
0.1999999999499946
  0
CIRCLE
  5
150
  8
Í¼²ã_1
 62
   250
 10
106.7175277513615015
 20
-101.756427428135197
 30
0.0
 40
0.1999999999499144
  0
CIRCLE
  5
151
  8
Í¼²ã_1
 62
   250
 10
103.1319277522585054
 20
-101.055223428310498
 30
0.0
 40
0.1999999999497941
  0
CIRCLE
  5
152
  8
Í¼²ã_1
 62
   250
 10
103.9287277520591033
 20
-101.055223428310498
 30
0.0
 40
0.1999999999497941
  0
CIRCLE
  5
153
  8
Í¼²ã_1
 62
   250
 10
104.7255277518597012
 20
-101.055223428310498
 30
0.0
 40
0.1999999999497941
  0
CIRCLE
  5
154
  8
Í¼²ã_1
 62
   250
 10
105.5223277516604981
 20
-101.055223428310498
 30
0.0
 40
0.1999999999499144
  0
CIRCLE
  5
155
  8
Í¼²ã_1
 62
   250
 10
106.319127751460897
 20
-101.055223428310498
 30
0.0
 40
0.1999999999496737
  0
CIRCLE
  5
156
  8
Í¼²ã_1
 62
   250
 10
102.7335277523582988
 20
-100.3540194284858984
 30
0.0
 40
0.1999999999499545
  0
CIRCLE
  5
157
  8
Í¼²ã_1
 62
   250
 10
103.5303277521588967
 20
-100.3540194284858984
 30
0.0
 40
0.1999999999497941
  0
CIRCLE
  5
158
  8
Í¼²ã_1
 62
   250
 10
104.3271277519594946
 20
-100.3540194284858984
 30
0.0
 40
0.1999999999497941
  0
CIRCLE
  5
159
  8
Í¼²ã_1
 62
   250
 10
105.1239277517601067
 20
-100.3540194284858984
 30
0.0
 40
0.1999999999498342
  0
CIRCLE
  5
15A
  8
Í¼²ã_1
 62
   250
 10
105.9207277515607046
 20
-100.3540194284858984
 30
0.0
 40
0.1999999999498743
  0
CIRCLE
  5
15B
  8
Í¼²ã_1
 62
   250
 10
106.7175277513615015
 20
-100.3540194284858984
 30
0.0
 40
0.1999999999497941
  0
CIRCLE
  5
15C
  8
Í¼²ã_1
 62
   250
 10
103.1319277522585054
 20
-99.6528154286615973
 30
0.0
 40
0.1999999999499545
  0
CIRCLE
  5
15D
  8
Í¼²ã_1
 62
   250
 10
103.9287277520591033
 20
-99.6528154286615973
 30
0.0
 40
0.1999999999499545
  0
CIRCLE
  5
15E
  8
Í¼²ã_1
 62
   250
 10
104.7255277518597012
 20
-99.6528154286615973
 30
0.0
 40
0.1999999999499545
  0
CIRCLE
  5
15F
  8
Í¼²ã_1
 62
   250
 10
105.5223277516604981
 20
-99.6528154286615973
 30
0.0
 40
0.1999999999500748
  0
CIRCLE
  5
160
  8
Í¼²ã_1
 62
   250
 10
106.319127751460897
 20
-99.6528154286615973
 30
0.0
 40
0.1999999999498342
  0
CIRCLE
  5
161
  8
Í¼²ã_1
 62
   250
 10
102.7335277523582988
 20
-98.9516114288368271
 30
0.0
 40
0.1999999999499144
  0
CIRCLE
  5
162
  8
Í¼²ã_1
 62
   250
 10
103.5303277521588967
 20
-98.9516114288368271
 30
0.0
 40
0.199999999949754
  0
CIRCLE
  5
163
  8
Í¼²ã_1
 62
   250
 10
104.3271277519594946
 20
-98.9516114288368271
 30
0.0
 40
0.199999999949754
  0
CIRCLE
  5
164
  8
Í¼²ã_1
 62
   250
 10
105.1239277517601067
 20
-98.9516114288368271
 30
0.0
 40
0.1999999999497941
  0
CIRCLE
  5
165
  8
Í¼²ã_1
 62
   250
 10
105.9207277515607046
 20
-98.9516114288368271
 30
0.0
 40
0.1999999999498342
  0
CIRCLE
  5
166
  8
Í¼²ã_1
 62
   250
 10
106.7175277513615015
 20
-98.9516114288368271
 30
0.0
 40
0.199999999949754
  0
ENDBLK
  5
134
  8
0
  0
BLOCK
  8
0
  2
BLOCK_5
 70
     0
 10
0.0
 20
0.0
 30
0.0
  3
BLOCK_5
  1

  0
CIRCLE
  5
16B
  8
Í¼²ã_1
 62
   250
 10
101.6751944190268944
 20
-122.5485626466701063
 30
0.0
 40
0.2645833332672677
  0
CIRCLE
  5
16C
  8
Í¼²ã_1
 62
   250
 10
102.4689444188284995
 20
-122.5485626466701063
 30
0.0
 40
0.2645833332672677
  0
CIRCLE
  5
16D
  8
Í¼²ã_1
 62
   250
 10
103.2626944186301046
 20
-122.5485626466701063
 30
0.0
 40
0.2645833332672677
  0
CIRCLE
  5
16E
  8
Í¼²ã_1
 62
   250
 10
104.056444418431596
 20
-122.5485626466701063
 30
0.0
 40
0.2645833332672677
  0
CIRCLE
  5
16F
  8
Í¼²ã_1
 62
   250
 10
104.8501944182332011
 20
-122.5485626466701063
 30
0.0
 40
0.2645833332672677
  0
CIRCLE
  5
170
  8
Í¼²ã_1
 62
   250
 10
105.6439444180348062
 20
-122.5485626466701063
 30
0.0
 40
0.2645833332672677
  0
CIRCLE
  5
171
  8
Í¼²ã_1
 62
   250
 10
106.4376944178362976
 20
-122.5485626466701063
 30
0.0
 40
0.2645833332672677
  0
CIRCLE
  5
172
  8
Í¼²ã_1
 62
   250
 10
102.0720694189276969
 20
-121.848469855178493
 30
0.0
 40
0.2645833332672276
  0
CIRCLE
  5
173
  8
Í¼²ã_1
 62
   250
 10
102.865819418729302
 20
-121.848469855178493
 30
0.0
 40
0.2645833332672276
  0
CIRCLE
  5
174
  8
Í¼²ã_1
 62
   250
 10
103.6595694185307934
 20
-121.848469855178493
 30
0.0
 40
0.2645833332672276
  0
CIRCLE
  5
175
  8
Í¼²ã_1
 62
   250
 10
104.4533194183323985
 20
-121.848469855178493
 30
0.0
 40
0.2645833332672276
  0
CIRCLE
  5
176
  8
Í¼²ã_1
 62
   250
 10
105.2470694181340036
 20
-121.848469855178493
 30
0.0
 40
0.2645833332672276
  0
CIRCLE
  5
177
  8
Í¼²ã_1
 62
   250
 10
106.040819417935495
 20
-121.848469855178493
 30
0.0
 40
0.2645833332672276
  0
CIRCLE
  5
178
  8
Í¼²ã_1
 62
   250
 10
101.6751944190268944
 20
-121.1483770636867945
 30
0.0
 40
0.2645833332672276
  0
CIRCLE
  5
179
  8
Í¼²ã_1
 62
   250
 10
102.4689444188284995
 20
-121.1483770636867945
 30
0.0
 40
0.2645833332672276
  0
CIRCLE
  5
17A
  8
Í¼²ã_1
 62
   250
 10
103.2626944186301046
 20
-121.1483770636867945
 30
0.0
 40
0.2645833332672276
  0
CIRCLE
  5
17B
  8
Í¼²ã_1
 62
   250
 10
104.056444418431596
 20
-121.1483770636867945
 30
0.0
 40
0.2645833332672276
  0
CIRCLE
  5
17C
  8
Í¼²ã_1
 62
   250
 10
104.8501944182332011
 20
-121.1483770636867945
 30
0.0
 40
0.2645833332672276
  0
CIRCLE
  5
17D
  8
Í¼²ã_1
 62
   250
 10
105.6439444180348062
 20
-121.1483770636867945
 30
0.0
 40
0.2645833332672276
  0
CIRCLE
  5
17E
  8
Í¼²ã_1
 62
   250
 10
106.4376944178362976
 20
-121.1483770636867945
 30
0.0
 40
0.2645833332672276
  0
CIRCLE
  5
17F
  8
Í¼²ã_1
 62
   250
 10
102.0720694189276969
 20
-120.4482842721950959
 30
0.0
 40
0.2645833332672276
  0
CIRCLE
  5
180
  8
Í¼²ã_1
 62
   250
 10
102.865819418729302
 20
-120.4482842721950959
 30
0.0
 40
0.2645833332672276
  0
CIRCLE
  5
181
  8
Í¼²ã_1
 62
   250
 10
103.6595694185307934
 20
-120.4482842721950959
 30
0.0
 40
0.2645833332672276
  0
CIRCLE
  5
182
  8
Í¼²ã_1
 62
   250
 10
104.4533194183323985
 20
-120.4482842721950959
 30
0.0
 40
0.2645833332672276
  0
CIRCLE
  5
183
  8
Í¼²ã_1
 62
   250
 10
105.2470694181340036
 20
-120.4482842721950959
 30
0.0
 40
0.2645833332672276
  0
CIRCLE
  5
184
  8
Í¼²ã_1
 62
   250
 10
106.040819417935495
 20
-120.4482842721950959
 30
0.0
 40
0.2645833332672276
  0
CIRCLE
  5
185
  8
Í¼²ã_1
 62
   250
 10
101.6751944190268944
 20
-119.7481914807034968
 30
0.0
 40
0.2645833332671875
  0
CIRCLE
  5
186
  8
Í¼²ã_1
 62
   250
 10
102.4689444188284995
 20
-119.7481914807034968
 30
0.0
 40
0.2645833332671875
  0
CIRCLE
  5
187
  8
Í¼²ã_1
 62
   250
 10
103.2626944186301046
 20
-119.7481914807034968
 30
0.0
 40
0.2645833332671875
  0
CIRCLE
  5
188
  8
Í¼²ã_1
 62
   250
 10
104.056444418431596
 20
-119.7481914807034968
 30
0.0
 40
0.2645833332671875
  0
CIRCLE
  5
189
  8
Í¼²ã_1
 62
   250
 10
104.8501944182332011
 20
-119.7481914807034968
 30
0.0
 40
0.2645833332671875
  0
CIRCLE
  5
18A
  8
Í¼²ã_1
 62
   250
 10
105.6439444180348062
 20
-119.7481914807034968
 30
0.0
 40
0.2645833332671875
  0
CIRCLE
  5
18B
  8
Í¼²ã_1
 62
   250
 10
106.4376944178362976
 20
-119.7481914807034968
 30
0.0
 40
0.2645833332671875
  0
CIRCLE
  5
18C
  8
Í¼²ã_1
 62
   250
 10
102.0720694189276969
 20
-119.0480986892118977
 30
0.0
 40
0.2645833332673078
  0
CIRCLE
  5
18D
  8
Í¼²ã_1
 62
   250
 10
102.865819418729302
 20
-119.0480986892118977
 30
0.0
 40
0.2645833332673078
  0
CIRCLE
  5
18E
  8
Í¼²ã_1
 62
   250
 10
103.6595694185307934
 20
-119.0480986892118977
 30
0.0
 40
0.2645833332673078
  0
CIRCLE
  5
18F
  8
Í¼²ã_1
 62
   250
 10
104.4533194183323985
 20
-119.0480986892118977
 30
0.0
 40
0.2645833332673078
  0
CIRCLE
  5
190
  8
Í¼²ã_1
 62
   250
 10
105.2470694181340036
 20
-119.0480986892118977
 30
0.0
 40
0.2645833332673078
  0
CIRCLE
  5
191
  8
Í¼²ã_1
 62
   250
 10
106.040819417935495
 20
-119.0480986892118977
 30
0.0
 40
0.2645833332673078
  0
CIRCLE
  5
192
  8
Í¼²ã_1
 62
   250
 10
101.6751944190268944
 20
-118.3480058977201992
 30
0.0
 40
0.2645833332673078
  0
CIRCLE
  5
193
  8
Í¼²ã_1
 62
   250
 10
102.4689444188284995
 20
-118.3480058977201992
 30
0.0
 40
0.2645833332673078
  0
CIRCLE
  5
194
  8
Í¼²ã_1
 62
   250
 10
103.2626944186301046
 20
-118.3480058977201992
 30
0.0
 40
0.2645833332673078
  0
CIRCLE
  5
195
  8
Í¼²ã_1
 62
   250
 10
104.056444418431596
 20
-118.3480058977201992
 30
0.0
 40
0.2645833332673078
  0
CIRCLE
  5
196
  8
Í¼²ã_1
 62
   250
 10
104.8501944182332011
 20
-118.3480058977201992
 30
0.0
 40
0.2645833332673078
  0
CIRCLE
  5
197
  8
Í¼²ã_1
 62
   250
 10
105.6439444180348062
 20
-118.3480058977201992
 30
0.0
 40
0.2645833332673078
  0
CIRCLE
  5
198
  8
Í¼²ã_1
 62
   250
 10
106.4376944178362976
 20
-118.3480058977201992
 30
0.0
 40
0.2645833332673078
  0
ENDBLK
  5
16A
  8
0
  0
BLOCK
  8
0
  2
BLOCK_6
 70
     0
 10
0.0
 20
0.0
 30
0.0
  3
BLOCK_6
  1

  0
CIRCLE
  5
19D
  8
Í¼²ã_1
 62
   250
 10
101.6736694192902064
 20
-142.1080900001720977
 30
0.0
 40
0.1999999999499144
  0
CIRCLE
  5
19E
  8
Í¼²ã_1
 62
   250
 10
102.4704694190908043
 20
-142.1080900001720977
 30
0.0
 40
0.199999999949754
  0
CIRCLE
  5
19F
  8
Í¼²ã_1
 62
   250
 10
103.2672694188914022
 20
-142.1080900001720977
 30
0.0
 40
0.199999999949754
  0
CIRCLE
  5
1A0
  8
Í¼²ã_1
 62
   250
 10
104.0640694186920001
 20
-142.1080900001720977
 30
0.0
 40
0.1999999999497941
  0
CIRCLE
  5
1A1
  8
Í¼²ã_1
 62
   250
 10
104.860869418492598
 20
-142.1080900001720977
 30
0.0
 40
0.1999999999497941
  0
CIRCLE
  5
1A2
  8
Í¼²ã_1
 62
   250
 10
105.6576694182930964
 20
-142.1080900001720977
 30
0.0
 40
0.199999999949754
  0
CIRCLE
  5
1A3
  8
Í¼²ã_1
 62
   250
 10
106.4544694180934954
 20
-142.1080900001720977
 30
0.0
 40
0.1999999999498342
  0
CIRCLE
  5
1A4
  8
Í¼²ã_1
 62
   250
 10
102.0720694191903988
 20
-141.4068860003474981
 30
0.0
 40
0.1999999999498342
  0
CIRCLE
  5
1A5
  8
Í¼²ã_1
 62
   250
 10
102.8688694189909967
 20
-141.4068860003474981
 30
0.0
 40
0.1999999999498342
  0
CIRCLE
  5
1A6
  8
Í¼²ã_1
 62
   250
 10
103.6656694187915946
 20
-141.4068860003474981
 30
0.0
 40
0.1999999999498342
  0
CIRCLE
  5
1A7
  8
Í¼²ã_1
 62
   250
 10
104.4624694185923062
 20
-141.4068860003474981
 30
0.0
 40
0.1999999999499144
  0
CIRCLE
  5
1A8
  8
Í¼²ã_1
 62
   250
 10
105.2592694183929041
 20
-141.4068860003474981
 30
0.0
 40
0.1999999999497941
  0
CIRCLE
  5
1A9
  8
Í¼²ã_1
 62
   250
 10
106.0560694181937009
 20
-141.4068860003474981
 30
0.0
 40
0.1999999999498743
  0
CIRCLE
  5
1AA
  8
Í¼²ã_1
 62
   250
 10
101.6736694192902064
 20
-140.7056820005232112
 30
0.0
 40
0.1999999999500748
  0
CIRCLE
  5
1AB
  8
Í¼²ã_1
 62
   250
 10
102.4704694190908043
 20
-140.7056820005232112
 30
0.0
 40
0.1999999999499144
  0
CIRCLE
  5
1AC
  8
Í¼²ã_1
 62
   250
 10
103.2672694188914022
 20
-140.7056820005232112
 30
0.0
 40
0.1999999999499144
  0
CIRCLE
  5
1AD
  8
Í¼²ã_1
 62
   250
 10
104.0640694186920001
 20
-140.7056820005232112
 30
0.0
 40
0.1999999999499545
  0
CIRCLE
  5
1AE
  8
Í¼²ã_1
 62
   250
 10
104.860869418492598
 20
-140.7056820005232112
 30
0.0
 40
0.1999999999499545
  0
CIRCLE
  5
1AF
  8
Í¼²ã_1
 62
   250
 10
105.6576694182930964
 20
-140.7056820005232112
 30
0.0
 40
0.1999999999499144
  0
CIRCLE
  5
1B0
  8
Í¼²ã_1
 62
   250
 10
106.4544694180934954
 20
-140.7056820005232112
 30
0.0
 40
0.1999999999499946
  0
CIRCLE
  5
1B1
  8
Í¼²ã_1
 62
   250
 10
102.0720694191903988
 20
-140.0044780006984126
 30
0.0
 40
0.1999999999497941
  0
CIRCLE
  5
1B2
  8
Í¼²ã_1
 62
   250
 10
102.8688694189909967
 20
-140.0044780006984126
 30
0.0
 40
0.1999999999497941
  0
CIRCLE
  5
1B3
  8
Í¼²ã_1
 62
   250
 10
103.6656694187915946
 20
-140.0044780006984126
 30
0.0
 40
0.1999999999497941
  0
CIRCLE
  5
1B4
  8
Í¼²ã_1
 62
   250
 10
104.4624694185923062
 20
-140.0044780006984126
 30
0.0
 40
0.1999999999498743
  0
CIRCLE
  5
1B5
  8
Í¼²ã_1
 62
   250
 10
105.2592694183929041
 20
-140.0044780006984126
 30
0.0
 40
0.199999999949754
  0
CIRCLE
  5
1B6
  8
Í¼²ã_1
 62
   250
 10
106.0560694181937009
 20
-140.0044780006984126
 30
0.0
 40
0.1999999999498342
  0
CIRCLE
  5
1B7
  8
Í¼²ã_1
 62
   250
 10
101.6736694192902064
 20
-139.3032740008738983
 30
0.0
 40
0.1999999999499545
  0
CIRCLE
  5
1B8
  8
Í¼²ã_1
 62
   250
 10
102.4704694190908043
 20
-139.3032740008738983
 30
0.0
 40
0.1999999999497941
  0
CIRCLE
  5
1B9
  8
Í¼²ã_1
 62
   250
 10
103.2672694188914022
 20
-139.3032740008738983
 30
0.0
 40
0.1999999999497941
  0
CIRCLE
  5
1BA
  8
Í¼²ã_1
 62
   250
 10
104.0640694186920001
 20
-139.3032740008738983
 30
0.0
 40
0.1999999999498342
  0
CIRCLE
  5
1BB
  8
Í¼²ã_1
 62
   250
 10
104.860869418492598
 20
-139.3032740008738983
 30
0.0
 40
0.1999999999498342
  0
CIRCLE
  5
1BC
  8
Í¼²ã_1
 62
   250
 10
105.6576694182930964
 20
-139.3032740008738983
 30
0.0
 40
0.1999999999497941
  0
CIRCLE
  5
1BD
  8
Í¼²ã_1
 62
   250
 10
106.4544694180934954
 20
-139.3032740008738983
 30
0.0
 40
0.1999999999498743
  0
CIRCLE
  5
1BE
  8
Í¼²ã_1
 62
   250
 10
102.0720694191903988
 20
-138.6020700010494977
 30
0.0
 40
0.1999999999499545
  0
CIRCLE
  5
1BF
  8
Í¼²ã_1
 62
   250
 10
102.8688694189909967
 20
-138.6020700010494977
 30
0.0
 40
0.1999999999499545
  0
CIRCLE
  5
1C0
  8
Í¼²ã_1
 62
   250
 10
103.6656694187915946
 20
-138.6020700010494977
 30
0.0
 40
0.1999999999499545
  0
CIRCLE
  5
1C1
  8
Í¼²ã_1
 62
   250
 10
104.4624694185923062
 20
-138.6020700010494977
 30
0.0
 40
0.1999999999500348
  0
CIRCLE
  5
1C2
  8
Í¼²ã_1
 62
   250
 10
105.2592694183929041
 20
-138.6020700010494977
 30
0.0
 40
0.1999999999499144
  0
CIRCLE
  5
1C3
  8
Í¼²ã_1
 62
   250
 10
106.0560694181937009
 20
-138.6020700010494977
 30
0.0
 40
0.1999999999499946
  0
CIRCLE
  5
1C4
  8
Í¼²ã_1
 62
   250
 10
101.6736694192902064
 20
-137.9008660012248129
 30
0.0
 40
0.1999999999499144
  0
CIRCLE
  5
1C5
  8
Í¼²ã_1
 62
   250
 10
102.4704694190908043
 20
-137.9008660012248129
 30
0.0
 40
0.199999999949754
  0
CIRCLE
  5
1C6
  8
Í¼²ã_1
 62
   250
 10
103.2672694188914022
 20
-137.9008660012248129
 30
0.0
 40
0.199999999949754
  0
CIRCLE
  5
1C7
  8
Í¼²ã_1
 62
   250
 10
104.0640694186920001
 20
-137.9008660012248129
 30
0.0
 40
0.1999999999497941
  0
CIRCLE
  5
1C8
  8
Í¼²ã_1
 62
   250
 10
104.860869418492598
 20
-137.9008660012248129
 30
0.0
 40
0.1999999999497941
  0
CIRCLE
  5
1C9
  8
Í¼²ã_1
 62
   250
 10
105.6576694182930964
 20
-137.9008660012248129
 30
0.0
 40
0.199999999949754
  0
CIRCLE
  5
1CA
  8
Í¼²ã_1
 62
   250
 10
106.4544694180934954
 20
-137.9008660012248129
 30
0.0
 40
0.1999999999498342
  0
ENDBLK
  5
19C
  8
0
  0
BLOCK
  8
0
  2
BLOCK_7
 70
     0
 10
0.0
 20
0.0
 30
0.0
  3
BLOCK_7
  1

  0
CIRCLE
  5
1CF
  8
Í¼²ã_1
 62
   250
 10
102.8103860854087941
 20
-160.4982446415237973
 30
0.0
 40
0.2645833332673479
  0
CIRCLE
  5
1D0
  8
Í¼²ã_1
 62
   250
 10
103.6041360852102997
 20
-160.4982446415237973
 30
0.0
 40
0.2645833332673479
  0
CIRCLE
  5
1D1
  8
Í¼²ã_1
 62
   250
 10
104.3978860850119048
 20
-160.4982446415237973
 30
0.0
 40
0.2645833332673479
  0
CIRCLE
  5
1D2
  8
Í¼²ã_1
 62
   250
 10
105.1916360848134957
 20
-160.4982446415237973
 30
0.0
 40
0.2645833332673479
  0
CIRCLE
  5
1D3
  8
Í¼²ã_1
 62
   250
 10
105.9853860846150013
 20
-160.4982446415237973
 30
0.0
 40
0.2645833332673479
  0
CIRCLE
  5
1D4
  8
Í¼²ã_1
 62
   250
 10
106.7791360844166064
 20
-160.4982446415237973
 30
0.0
 40
0.2645833332673479
  0
CIRCLE
  5
1D5
  8
Í¼²ã_1
 62
   250
 10
103.2072610853094972
 20
-159.7981518500322125
 30
0.0
 40
0.2645833332672677
  0
CIRCLE
  5
1D6
  8
Í¼²ã_1
 62
   250
 10
104.0010110851111023
 20
-159.7981518500322125
 30
0.0
 40
0.2645833332672677
  0
CIRCLE
  5
1D7
  8
Í¼²ã_1
 62
   250
 10
104.7947610849126931
 20
-159.7981518500322125
 30
0.0
 40
0.2645833332672677
  0
CIRCLE
  5
1D8
  8
Í¼²ã_1
 62
   250
 10
105.5885110847141988
 20
-159.7981518500322125
 30
0.0
 40
0.2645833332672677
  0
CIRCLE
  5
1D9
  8
Í¼²ã_1
 62
   250
 10
106.3822610845158039
 20
-159.7981518500322125
 30
0.0
 40
0.2645833332672677
  0
CIRCLE
  5
1DA
  8
Í¼²ã_1
 62
   250
 10
102.8103860854087941
 20
-159.0980590585405992
 30
0.0
 40
0.2645833332672677
  0
CIRCLE
  5
1DB
  8
Í¼²ã_1
 62
   250
 10
103.6041360852102997
 20
-159.0980590585405992
 30
0.0
 40
0.2645833332672677
  0
CIRCLE
  5
1DC
  8
Í¼²ã_1
 62
   250
 10
104.3978860850119048
 20
-159.0980590585405992
 30
0.0
 40
0.2645833332672677
  0
CIRCLE
  5
1DD
  8
Í¼²ã_1
 62
   250
 10
105.1916360848134957
 20
-159.0980590585405992
 30
0.0
 40
0.2645833332672677
  0
CIRCLE
  5
1DE
  8
Í¼²ã_1
 62
   250
 10
105.9853860846150013
 20
-159.0980590585405992
 30
0.0
 40
0.2645833332672677
  0
CIRCLE
  5
1DF
  8
Í¼²ã_1
 62
   250
 10
106.7791360844166064
 20
-159.0980590585405992
 30
0.0
 40
0.2645833332672677
  0
CIRCLE
  5
1E0
  8
Í¼²ã_1
 62
   250
 10
103.2072610853094972
 20
-158.3979662670489006
 30
0.0
 40
0.2645833332672677
  0
CIRCLE
  5
1E1
  8
Í¼²ã_1
 62
   250
 10
104.0010110851111023
 20
-158.3979662670489006
 30
0.0
 40
0.2645833332672677
  0
CIRCLE
  5
1E2
  8
Í¼²ã_1
 62
   250
 10
104.7947610849126931
 20
-158.3979662670489006
 30
0.0
 40
0.2645833332672677
  0
CIRCLE
  5
1E3
  8
Í¼²ã_1
 62
   250
 10
105.5885110847141988
 20
-158.3979662670489006
 30
0.0
 40
0.2645833332672677
  0
CIRCLE
  5
1E4
  8
Í¼²ã_1
 62
   250
 10
106.3822610845158039
 20
-158.3979662670489006
 30
0.0
 40
0.2645833332672677
  0
CIRCLE
  5
1E5
  8
Í¼²ã_1
 62
   250
 10
102.8103860854087941
 20
-157.697873475557401
 30
0.0
 40
0.2645833332671875
  0
CIRCLE
  5
1E6
  8
Í¼²ã_1
 62
   250
 10
103.6041360852102997
 20
-157.697873475557401
 30
0.0
 40
0.2645833332671875
  0
CIRCLE
  5
1E7
  8
Í¼²ã_1
 62
   250
 10
104.3978860850119048
 20
-157.697873475557401
 30
0.0
 40
0.2645833332671875
  0
CIRCLE
  5
1E8
  8
Í¼²ã_1
 62
   250
 10
105.1916360848134957
 20
-157.697873475557401
 30
0.0
 40
0.2645833332671875
  0
CIRCLE
  5
1E9
  8
Í¼²ã_1
 62
   250
 10
105.9853860846150013
 20
-157.697873475557401
 30
0.0
 40
0.2645833332671875
  0
CIRCLE
  5
1EA
  8
Í¼²ã_1
 62
   250
 10
106.7791360844166064
 20
-157.697873475557401
 30
0.0
 40
0.2645833332671875
  0
CIRCLE
  5
1EB
  8
Í¼²ã_1
 62
   250
 10
103.2072610853094972
 20
-156.9977806840657877
 30
0.0
 40
0.2645833332674282
  0
CIRCLE
  5
1EC
  8
Í¼²ã_1
 62
   250
 10
104.0010110851111023
 20
-156.9977806840657877
 30
0.0
 40
0.2645833332674282
  0
CIRCLE
  5
1ED
  8
Í¼²ã_1
 62
   250
 10
104.7947610849126931
 20
-156.9977806840657877
 30
0.0
 40
0.2645833332674282
  0
CIRCLE
  5
1EE
  8
Í¼²ã_1
 62
   250
 10
105.5885110847141988
 20
-156.9977806840657877
 30
0.0
 40
0.2645833332674282
  0
CIRCLE
  5
1EF
  8
Í¼²ã_1
 62
   250
 10
106.3822610845158039
 20
-156.9977806840657877
 30
0.0
 40
0.2645833332674282
  0
CIRCLE
  5
1F0
  8
Í¼²ã_1
 62
   250
 10
102.8103860854087941
 20
-156.2976878925742028
 30
0.0
 40
0.2645833332674282
  0
CIRCLE
  5
1F1
  8
Í¼²ã_1
 62
   250
 10
103.6041360852102997
 20
-156.2976878925742028
 30
0.0
 40
0.2645833332674282
  0
CIRCLE
  5
1F2
  8
Í¼²ã_1
 62
   250
 10
104.3978860850119048
 20
-156.2976878925742028
 30
0.0
 40
0.2645833332674282
  0
CIRCLE
  5
1F3
  8
Í¼²ã_1
 62
   250
 10
105.1916360848134957
 20
-156.2976878925742028
 30
0.0
 40
0.2645833332674282
  0
CIRCLE
  5
1F4
  8
Í¼²ã_1
 62
   250
 10
105.9853860846150013
 20
-156.2976878925742028
 30
0.0
 40
0.2645833332674282
  0
CIRCLE
  5
1F5
  8
Í¼²ã_1
 62
   250
 10
106.7791360844166064
 20
-156.2976878925742028
 30
0.0
 40
0.2645833332674282
  0
ENDBLK
  5
1CE
  8
0
  0
BLOCK
  8
0
  2
BLOCK_8
 70
     0
 10
0.0
 20
0.0
 30
0.0
  3
BLOCK_8
  1

  0
CIRCLE
  5
1FA
  8
Í¼²ã_1
 62
   250
 10
102.7335277523585972
 20
-179.6549365729111116
 30
0.0
 40
0.1999999999497941
  0
CIRCLE
  5
1FB
  8
Í¼²ã_1
 62
   250
 10
103.5303277521591951
 20
-179.6549365729111116
 30
0.0
 40
0.1999999999496337
  0
CIRCLE
  5
1FC
  8
Í¼²ã_1
 62
   250
 10
104.327127751959793
 20
-179.6549365729111116
 30
0.0
 40
0.1999999999496337
  0
CIRCLE
  5
1FD
  8
Í¼²ã_1
 62
   250
 10
105.1239277517604052
 20
-179.6549365729111116
 30
0.0
 40
0.1999999999496737
  0
CIRCLE
  5
1FE
  8
Í¼²ã_1
 62
   250
 10
105.9207277515607046
 20
-179.6549365729111116
 30
0.0
 40
0.1999999999497138
  0
CIRCLE
  5
1FF
  8
Í¼²ã_1
 62
   250
 10
106.717527751361601
 20
-179.6549365729111116
 30
0.0
 40
0.1999999999497138
  0
CIRCLE
  5
200
  8
Í¼²ã_1
 62
   250
 10
103.1319277522588038
 20
-178.953732573086512
 30
0.0
 40
0.1999999999499144
  0
CIRCLE
  5
201
  8
Í¼²ã_1
 62
   250
 10
103.9287277520594017
 20
-178.953732573086512
 30
0.0
 40
0.1999999999499144
  0
CIRCLE
  5
202
  8
Í¼²ã_1
 62
   250
 10
104.7255277518599996
 20
-178.953732573086512
 30
0.0
 40
0.1999999999499144
  0
CIRCLE
  5
203
  8
Í¼²ã_1
 62
   250
 10
105.522327751660896
 20
-178.953732573086512
 30
0.0
 40
0.1999999999500748
  0
CIRCLE
  5
204
  8
Í¼²ã_1
 62
   250
 10
106.3191277514614939
 20
-178.953732573086512
 30
0.0
 40
0.1999999999497941
  0
CIRCLE
  5
205
  8
Í¼²ã_1
 62
   250
 10
102.7335277523585972
 20
-178.2525285732617135
 30
0.0
 40
0.1999999999500347
  0
CIRCLE
  5
206
  8
Í¼²ã_1
 62
   250
 10
103.5303277521591951
 20
-178.2525285732617135
 30
0.0
 40
0.1999999999498743
  0
CIRCLE
  5
207
  8
Í¼²ã_1
 62
   250
 10
104.327127751959793
 20
-178.2525285732617135
 30
0.0
 40
0.1999999999498743
  0
CIRCLE
  5
208
  8
Í¼²ã_1
 62
   250
 10
105.1239277517604052
 20
-178.2525285732617135
 30
0.0
 40
0.1999999999499144
  0
CIRCLE
  5
209
  8
Í¼²ã_1
 62
   250
 10
105.9207277515607046
 20
-178.2525285732617135
 30
0.0
 40
0.1999999999499545
  0
CIRCLE
  5
20A
  8
Í¼²ã_1
 62
   250
 10
106.717527751361601
 20
-178.2525285732617135
 30
0.0
 40
0.1999999999499545
  0
CIRCLE
  5
20B
  8
Í¼²ã_1
 62
   250
 10
103.1319277522588038
 20
-177.5513245734370003
 30
0.0
 40
0.1999999999499144
  0
CIRCLE
  5
20C
  8
Í¼²ã_1
 62
   250
 10
103.9287277520594017
 20
-177.5513245734370003
 30
0.0
 40
0.1999999999499144
  0
CIRCLE
  5
20D
  8
Í¼²ã_1
 62
   250
 10
104.7255277518599996
 20
-177.5513245734370003
 30
0.0
 40
0.1999999999499144
  0
CIRCLE
  5
20E
  8
Í¼²ã_1
 62
   250
 10
105.522327751660896
 20
-177.5513245734370003
 30
0.0
 40
0.1999999999500748
  0
CIRCLE
  5
20F
  8
Í¼²ã_1
 62
   250
 10
106.3191277514614939
 20
-177.5513245734370003
 30
0.0
 40
0.1999999999497941
  0
CIRCLE
  5
210
  8
Í¼²ã_1
 62
   250
 10
102.7335277523585972
 20
-176.8501205736124859
 30
0.0
 40
0.1999999999498743
  0
CIRCLE
  5
211
  8
Í¼²ã_1
 62
   250
 10
103.5303277521591951
 20
-176.8501205736124859
 30
0.0
 40
0.1999999999497139
  0
CIRCLE
  5
212
  8
Í¼²ã_1
 62
   250
 10
104.327127751959793
 20
-176.8501205736124859
 30
0.0
 40
0.1999999999497139
  0
CIRCLE
  5
213
  8
Í¼²ã_1
 62
   250
 10
105.1239277517604052
 20
-176.8501205736124859
 30
0.0
 40
0.1999999999497539
  0
CIRCLE
  5
214
  8
Í¼²ã_1
 62
   250
 10
105.9207277515607046
 20
-176.8501205736124859
 30
0.0
 40
0.1999999999497941
  0
CIRCLE
  5
215
  8
Í¼²ã_1
 62
   250
 10
106.717527751361601
 20
-176.8501205736124859
 30
0.0
 40
0.1999999999497941
  0
CIRCLE
  5
216
  8
Í¼²ã_1
 62
   250
 10
103.1319277522588038
 20
-176.1489165737885116
 30
0.0
 40
0.1999999999499946
  0
CIRCLE
  5
217
  8
Í¼²ã_1
 62
   250
 10
103.9287277520594017
 20
-176.1489165737885116
 30
0.0
 40
0.1999999999499946
  0
CIRCLE
  5
218
  8
Í¼²ã_1
 62
   250
 10
104.7255277518599996
 20
-176.1489165737885116
 30
0.0
 40
0.1999999999499946
  0
CIRCLE
  5
219
  8
Í¼²ã_1
 62
   250
 10
105.522327751660896
 20
-176.1489165737885116
 30
0.0
 40
0.1999999999501551
  0
CIRCLE
  5
21A
  8
Í¼²ã_1
 62
   250
 10
106.3191277514614939
 20
-176.1489165737885116
 30
0.0
 40
0.1999999999498743
  0
CIRCLE
  5
21B
  8
Í¼²ã_1
 62
   250
 10
102.7335277523585972
 20
-175.4477125739637984
 30
0.0
 40
0.1999999999497941
  0
CIRCLE
  5
21C
  8
Í¼²ã_1
 62
   250
 10
103.5303277521591951
 20
-175.4477125739637984
 30
0.0
 40
0.1999999999496337
  0
CIRCLE
  5
21D
  8
Í¼²ã_1
 62
   250
 10
104.327127751959793
 20
-175.4477125739637984
 30
0.0
 40
0.1999999999496337
  0
CIRCLE
  5
21E
  8
Í¼²ã_1
 62
   250
 10
105.1239277517604052
 20
-175.4477125739637984
 30
0.0
 40
0.1999999999496737
  0
CIRCLE
  5
21F
  8
Í¼²ã_1
 62
   250
 10
105.9207277515607046
 20
-175.4477125739637984
 30
0.0
 40
0.1999999999497138
  0
CIRCLE
  5
220
  8
Í¼²ã_1
 62
   250
 10
106.717527751361601
 20
-175.4477125739637984
 30
0.0
 40
0.1999999999497138
  0
ENDBLK
  5
1F9
  8
0
  0
BLOCK
  8
0
  2
BLOCK_9
 70
     0
 10
0.0
 20
0.0
 30
0.0
  3
BLOCK_9
  1

  0
CIRCLE
  5
225
  8
Í¼²ã_1
 62
   250
 10
101.2045110858115038
 20
-198.4479266363782131
 30
0.0
 40
0.2645833332671875
  0
CIRCLE
  5
226
  8
Í¼²ã_1
 62
   250
 10
101.9982610856129952
 20
-198.4479266363782131
 30
0.0
 40
0.2645833332671875
  0
CIRCLE
  5
227
  8
Í¼²ã_1
 62
   250
 10
102.7920110854146003
 20
-198.4479266363782131
 30
0.0
 40
0.2645833332671875
  0
CIRCLE
  5
228
  8
Í¼²ã_1
 62
   250
 10
103.5857610852162054
 20
-198.4479266363782131
 30
0.0
 40
0.2645833332671875
  0
CIRCLE
  5
229
  8
Í¼²ã_1
 62
   250
 10
104.3795110850176968
 20
-198.4479266363782131
 30
0.0
 40
0.2645833332671875
  0
CIRCLE
  5
22A
  8
Í¼²ã_1
 62
   250
 10
105.1732610848193019
 20
-198.4479266363782131
 30
0.0
 40
0.2645833332671875
  0
CIRCLE
  5
22B
  8
Í¼²ã_1
 62
   250
 10
105.9670110846204949
 20
-198.4479266363782131
 30
0.0
 40
0.2645833332671875
  0
CIRCLE
  5
22C
  8
Í¼²ã_1
 62
   250
 10
106.7607610844221
 20
-198.4479266363782131
 30
0.0
 40
0.2645833332671875
  0
CIRCLE
  5
22D
  8
Í¼²ã_1
 62
   250
 10
107.5545110842237051
 20
-198.4479266363782131
 30
0.0
 40
0.2645833332671875
  0
CIRCLE
  5
22E
  8
Í¼²ã_1
 62
   250
 10
108.3482610840251965
 20
-198.4479266363782131
 30
0.0
 40
0.2645833332671875
  0
CIRCLE
  5
22F
  8
Í¼²ã_1
 62
   250
 10
109.1420110838268016
 20
-198.4479266363782131
 30
0.0
 40
0.2645833332671875
  0
CIRCLE
  5
230
  8
Í¼²ã_1
 62
   250
 10
101.6013860857123063
 20
-197.7478338448865998
 30
0.0
 40
0.2645833332671875
  0
CIRCLE
  5
231
  8
Í¼²ã_1
 62
   250
 10
102.3951360855137978
 20
-197.7478338448865998
 30
0.0
 40
0.2645833332671875
  0
CIRCLE
  5
232
  8
Í¼²ã_1
 62
   250
 10
103.1888860853154029
 20
-197.7478338448865998
 30
0.0
 40
0.2645833332671875
  0
CIRCLE
  5
233
  8
Í¼²ã_1
 62
   250
 10
103.9826360851168943
 20
-197.7478338448865998
 30
0.0
 40
0.2645833332671875
  0
CIRCLE
  5
234
  8
Í¼²ã_1
 62
   250
 10
104.7763860849184994
 20
-197.7478338448865998
 30
0.0
 40
0.2645833332671875
  0
CIRCLE
  5
235
  8
Í¼²ã_1
 62
   250
 10
105.570136084719806
 20
-197.7478338448865998
 30
0.0
 40
0.2645833332670672
  0
CIRCLE
  5
236
  8
Í¼²ã_1
 62
   250
 10
106.3638860845212974
 20
-197.7478338448865998
 30
0.0
 40
0.2645833332671875
  0
CIRCLE
  5
237
  8
Í¼²ã_1
 62
   250
 10
107.1576360843229025
 20
-197.7478338448865998
 30
0.0
 40
0.2645833332671875
  0
CIRCLE
  5
238
  8
Í¼²ã_1
 62
   250
 10
107.951386084124394
 20
-197.7478338448865998
 30
0.0
 40
0.2645833332671875
  0
CIRCLE
  5
239
  8
Í¼²ã_1
 62
   250
 10
108.7451360839259991
 20
-197.7478338448865998
 30
0.0
 40
0.2645833332671875
  0
CIRCLE
  5
23A
  8
Í¼²ã_1
 62
   250
 10
101.2045110858115038
 20
-197.0477410533949012
 30
0.0
 40
0.2645833332671875
  0
CIRCLE
  5
23B
  8
Í¼²ã_1
 62
   250
 10
101.9982610856129952
 20
-197.0477410533949012
 30
0.0
 40
0.2645833332671875
  0
CIRCLE
  5
23C
  8
Í¼²ã_1
 62
   250
 10
102.7920110854146003
 20
-197.0477410533949012
 30
0.0
 40
0.2645833332671875
  0
CIRCLE
  5
23D
  8
Í¼²ã_1
 62
   250
 10
103.5857610852162054
 20
-197.0477410533949012
 30
0.0
 40
0.2645833332671875
  0
CIRCLE
  5
23E
  8
Í¼²ã_1
 62
   250
 10
104.3795110850176968
 20
-197.0477410533949012
 30
0.0
 40
0.2645833332671875
  0
CIRCLE
  5
23F
  8
Í¼²ã_1
 62
   250
 10
105.1732610848193019
 20
-197.0477410533949012
 30
0.0
 40
0.2645833332671875
  0
CIRCLE
  5
240
  8
Í¼²ã_1
 62
   250
 10
105.9670110846204949
 20
-197.0477410533949012
 30
0.0
 40
0.2645833332671875
  0
CIRCLE
  5
241
  8
Í¼²ã_1
 62
   250
 10
106.7607610844221
 20
-197.0477410533949012
 30
0.0
 40
0.2645833332671875
  0
CIRCLE
  5
242
  8
Í¼²ã_1
 62
   250
 10
107.5545110842237051
 20
-197.0477410533949012
 30
0.0
 40
0.2645833332671875
  0
CIRCLE
  5
243
  8
Í¼²ã_1
 62
   250
 10
108.3482610840251965
 20
-197.0477410533949012
 30
0.0
 40
0.2645833332671875
  0
CIRCLE
  5
244
  8
Í¼²ã_1
 62
   250
 10
109.1420110838268016
 20
-197.0477410533949012
 30
0.0
 40
0.2645833332671875
  0
CIRCLE
  5
245
  8
Í¼²ã_1
 62
   250
 10
101.6013860857123063
 20
-196.3476482619032026
 30
0.0
 40
0.2645833332671875
  0
CIRCLE
  5
246
  8
Í¼²ã_1
 62
   250
 10
102.3951360855137978
 20
-196.3476482619032026
 30
0.0
 40
0.2645833332671875
  0
CIRCLE
  5
247
  8
Í¼²ã_1
 62
   250
 10
103.1888860853154029
 20
-196.3476482619032026
 30
0.0
 40
0.2645833332671875
  0
CIRCLE
  5
248
  8
Í¼²ã_1
 62
   250
 10
103.9826360851168943
 20
-196.3476482619032026
 30
0.0
 40
0.2645833332671875
  0
CIRCLE
  5
249
  8
Í¼²ã_1
 62
   250
 10
104.7763860849184994
 20
-196.3476482619032026
 30
0.0
 40
0.2645833332671875
  0
CIRCLE
  5
24A
  8
Í¼²ã_1
 62
   250
 10
105.570136084719806
 20
-196.3476482619032026
 30
0.0
 40
0.2645833332670672
  0
CIRCLE
  5
24B
  8
Í¼²ã_1
 62
   250
 10
106.3638860845212974
 20
-196.3476482619032026
 30
0.0
 40
0.2645833332671875
  0
CIRCLE
  5
24C
  8
Í¼²ã_1
 62
   250
 10
107.1576360843229025
 20
-196.3476482619032026
 30
0.0
 40
0.2645833332671875
  0
CIRCLE
  5
24D
  8
Í¼²ã_1
 62
   250
 10
107.951386084124394
 20
-196.3476482619032026
 30
0.0
 40
0.2645833332671875
  0
CIRCLE
  5
24E
  8
Í¼²ã_1
 62
   250
 10
108.7451360839259991
 20
-196.3476482619032026
 30
0.0
 40
0.2645833332671875
  0
CIRCLE
  5
24F
  8
Í¼²ã_1
 62
   250
 10
101.2045110858115038
 20
-195.6475554704115041
 30
0.0
 40
0.2645833332671875
  0
CIRCLE
  5
250
  8
Í¼²ã_1
 62
   250
 10
101.9982610856129952
 20
-195.6475554704115041
 30
0.0
 40
0.2645833332671875
  0
CIRCLE
  5
251
  8
Í¼²ã_1
 62
   250
 10
102.7920110854146003
 20
-195.6475554704115041
 30
0.0
 40
0.2645833332671875
  0
CIRCLE
  5
252
  8
Í¼²ã_1
 62
   250
 10
103.5857610852162054
 20
-195.6475554704115041
 30
0.0
 40
0.2645833332671875
  0
CIRCLE
  5
253
  8
Í¼²ã_1
 62
   250
 10
104.3795110850176968
 20
-195.6475554704115041
 30
0.0
 40
0.2645833332671875
  0
CIRCLE
  5
254
  8
Í¼²ã_1
 62
   250
 10
105.1732610848193019
 20
-195.6475554704115041
 30
0.0
 40
0.2645833332671875
  0
CIRCLE
  5
255
  8
Í¼²ã_1
 62
   250
 10
105.9670110846204949
 20
-195.6475554704115041
 30
0.0
 40
0.2645833332671875
  0
CIRCLE
  5
256
  8
Í¼²ã_1
 62
   250
 10
106.7607610844221
 20
-195.6475554704115041
 30
0.0
 40
0.2645833332671875
  0
CIRCLE
  5
257
  8
Í¼²ã_1
 62
   250
 10
107.5545110842237051
 20
-195.6475554704115041
 30
0.0
 40
0.2645833332671875
  0
CIRCLE
  5
258
  8
Í¼²ã_1
 62
   250
 10
108.3482610840251965
 20
-195.6475554704115041
 30
0.0
 40
0.2645833332671875
  0
CIRCLE
  5
259
  8
Í¼²ã_1
 62
   250
 10
109.1420110838268016
 20
-195.6475554704115041
 30
0.0
 40
0.2645833332671875
  0
CIRCLE
  5
25A
  8
Í¼²ã_1
 62
   250
 10
101.6013860857123063
 20
-194.9474626789202034
 30
0.0
 40
0.2645833332676688
  0
CIRCLE
  5
25B
  8
Í¼²ã_1
 62
   250
 10
102.3951360855137978
 20
-194.9474626789202034
 30
0.0
 40
0.2645833332676688
  0
CIRCLE
  5
25C
  8
Í¼²ã_1
 62
   250
 10
103.1888860853154029
 20
-194.9474626789202034
 30
0.0
 40
0.2645833332676688
  0
CIRCLE
  5
25D
  8
Í¼²ã_1
 62
   250
 10
103.9826360851168943
 20
-194.9474626789202034
 30
0.0
 40
0.2645833332676688
  0
CIRCLE
  5
25E
  8
Í¼²ã_1
 62
   250
 10
104.7763860849184994
 20
-194.9474626789202034
 30
0.0
 40
0.2645833332676688
  0
CIRCLE
  5
25F
  8
Í¼²ã_1
 62
   250
 10
105.570136084719806
 20
-194.9474626789202034
 30
0.0
 40
0.2645833332675484
  0
CIRCLE
  5
260
  8
Í¼²ã_1
 62
   250
 10
106.3638860845212974
 20
-194.9474626789202034
 30
0.0
 40
0.2645833332676688
  0
CIRCLE
  5
261
  8
Í¼²ã_1
 62
   250
 10
107.1576360843229025
 20
-194.9474626789202034
 30
0.0
 40
0.2645833332676688
  0
CIRCLE
  5
262
  8
Í¼²ã_1
 62
   250
 10
107.951386084124394
 20
-194.9474626789202034
 30
0.0
 40
0.2645833332676688
  0
CIRCLE
  5
263
  8
Í¼²ã_1
 62
   250
 10
108.7451360839259991
 20
-194.9474626789202034
 30
0.0
 40
0.2645833332676688
  0
CIRCLE
  5
264
  8
Í¼²ã_1
 62
   250
 10
101.2045110858115038
 20
-194.2473698874285049
 30
0.0
 40
0.2645833332676688
  0
CIRCLE
  5
265
  8
Í¼²ã_1
 62
   250
 10
101.9982610856129952
 20
-194.2473698874285049
 30
0.0
 40
0.2645833332676688
  0
CIRCLE
  5
266
  8
Í¼²ã_1
 62
   250
 10
102.7920110854146003
 20
-194.2473698874285049
 30
0.0
 40
0.2645833332676688
  0
CIRCLE
  5
267
  8
Í¼²ã_1
 62
   250
 10
103.5857610852162054
 20
-194.2473698874285049
 30
0.0
 40
0.2645833332676688
  0
CIRCLE
  5
268
  8
Í¼²ã_1
 62
   250
 10
104.3795110850176968
 20
-194.2473698874285049
 30
0.0
 40
0.2645833332676688
  0
CIRCLE
  5
269
  8
Í¼²ã_1
 62
   250
 10
105.1732610848193019
 20
-194.2473698874285049
 30
0.0
 40
0.2645833332676688
  0
CIRCLE
  5
26A
  8
Í¼²ã_1
 62
   250
 10
105.9670110846204949
 20
-194.2473698874285049
 30
0.0
 40
0.2645833332676688
  0
CIRCLE
  5
26B
  8
Í¼²ã_1
 62
   250
 10
106.7607610844221
 20
-194.2473698874285049
 30
0.0
 40
0.2645833332676688
  0
CIRCLE
  5
26C
  8
Í¼²ã_1
 62
   250
 10
107.5545110842237051
 20
-194.2473698874285049
 30
0.0
 40
0.2645833332676688
  0
CIRCLE
  5
26D
  8
Í¼²ã_1
 62
   250
 10
108.3482610840251965
 20
-194.2473698874285049
 30
0.0
 40
0.2645833332676688
  0
CIRCLE
  5
26E
  8
Í¼²ã_1
 62
   250
 10
109.1420110838268016
 20
-194.2473698874285049
 30
0.0
 40
0.2645833332676688
  0
ENDBLK
  5
224
  8
0
  0
BLOCK
  8
0
  2
BLOCK_10
 70
     0
 10
0.0
 20
0.0
 30
0.0
  3
BLOCK_10
  1

  0
CIRCLE
  5
273
  8
Í¼²ã_1
 62
   250
 10
101.1399277527572025
 20
-219.1426380130646123
 30
0.0
 40
0.1999999999500347
  0
CIRCLE
  5
274
  8
Í¼²ã_1
 62
   250
 10
101.9367277525577009
 20
-219.1426380130646123
 30
0.0
 40
0.1999999999498743
  0
CIRCLE
  5
275
  8
Í¼²ã_1
 62
   250
 10
102.7335277523582988
 20
-219.1426380130646123
 30
0.0
 40
0.1999999999498743
  0
CIRCLE
  5
276
  8
Í¼²ã_1
 62
   250
 10
103.5303277521589962
 20
-219.1426380130646123
 30
0.0
 40
0.1999999999499144
  0
CIRCLE
  5
277
  8
Í¼²ã_1
 62
   250
 10
104.3271277519594946
 20
-219.1426380130646123
 30
0.0
 40
0.1999999999499144
  0
CIRCLE
  5
278
  8
Í¼²ã_1
 62
   250
 10
105.1239277517601067
 20
-219.1426380130646123
 30
0.0
 40
0.1999999999499144
  0
CIRCLE
  5
279
  8
Í¼²ã_1
 62
   250
 10
105.9207277515607046
 20
-219.1426380130646123
 30
0.0
 40
0.1999999999499545
  0
CIRCLE
  5
27A
  8
Í¼²ã_1
 62
   250
 10
106.717527751361601
 20
-219.1426380130646123
 30
0.0
 40
0.1999999999499545
  0
CIRCLE
  5
27B
  8
Í¼²ã_1
 62
   250
 10
107.5143277511621989
 20
-219.1426380130646123
 30
0.0
 40
0.1999999999497941
  0
CIRCLE
  5
27C
  8
Í¼²ã_1
 62
   250
 10
108.3111277509625978
 20
-219.1426380130646123
 30
0.0
 40
0.1999999999495535
  0
CIRCLE
  5
27D
  8
Í¼²ã_1
 62
   250
 10
101.5383277526573949
 20
-218.4414340132398138
 30
0.0
 40
0.1999999999499144
  0
CIRCLE
  5
27E
  8
Í¼²ã_1
 62
   250
 10
102.335127752458007
 20
-218.4414340132398138
 30
0.0
 40
0.1999999999499144
  0
CIRCLE
  5
27F
  8
Í¼²ã_1
 62
   250
 10
103.1319277522585054
 20
-218.4414340132398138
 30
0.0
 40
0.1999999999499144
  0
CIRCLE
  5
280
  8
Í¼²ã_1
 62
   250
 10
103.9287277520593022
 20
-218.4414340132398138
 30
0.0
 40
0.1999999999499946
  0
CIRCLE
  5
281
  8
Í¼²ã_1
 62
   250
 10
104.7255277518599001
 20
-218.4414340132398138
 30
0.0
 40
0.1999999999498743
  0
CIRCLE
  5
282
  8
Í¼²ã_1
 62
   250
 10
105.5223277516604981
 20
-218.4414340132398138
 30
0.0
 40
0.1999999999499144
  0
CIRCLE
  5
283
  8
Í¼²ã_1
 62
   250
 10
106.319127751460897
 20
-218.4414340132398138
 30
0.0
 40
0.1999999999497941
  0
CIRCLE
  5
284
  8
Í¼²ã_1
 62
   250
 10
107.1159277512613954
 20
-218.4414340132398138
 30
0.0
 40
0.1999999999499545
  0
CIRCLE
  5
285
  8
Í¼²ã_1
 62
   250
 10
107.912727751062306
 20
-218.4414340132398138
 30
0.0
 40
0.1999999999499545
  0
CIRCLE
  5
286
  8
Í¼²ã_1
 62
   250
 10
101.1399277527572025
 20
-217.74023001341601
 30
0.0
 40
0.1999999999501952
  0
CIRCLE
  5
287
  8
Í¼²ã_1
 62
   250
 10
101.9367277525577009
 20
-217.74023001341601
 30
0.0
 40
0.1999999999500348
  0
CIRCLE
  5
288
  8
Í¼²ã_1
 62
   250
 10
102.7335277523582988
 20
-217.74023001341601
 30
0.0
 40
0.1999999999500348
  0
CIRCLE
  5
289
  8
Í¼²ã_1
 62
   250
 10
103.5303277521589962
 20
-217.74023001341601
 30
0.0
 40
0.1999999999500749
  0
CIRCLE
  5
28A
  8
Í¼²ã_1
 62
   250
 10
104.3271277519594946
 20
-217.74023001341601
 30
0.0
 40
0.1999999999500749
  0
CIRCLE
  5
28B
  8
Í¼²ã_1
 62
   250
 10
105.1239277517601067
 20
-217.74023001341601
 30
0.0
 40
0.1999999999500749
  0
CIRCLE
  5
28C
  8
Í¼²ã_1
 62
   250
 10
105.9207277515607046
 20
-217.74023001341601
 30
0.0
 40
0.199999999950115
  0
CIRCLE
  5
28D
  8
Í¼²ã_1
 62
   250
 10
106.717527751361601
 20
-217.74023001341601
 30
0.0
 40
0.199999999950115
  0
CIRCLE
  5
28E
  8
Í¼²ã_1
 62
   250
 10
107.5143277511621989
 20
-217.74023001341601
 30
0.0
 40
0.1999999999499545
  0
CIRCLE
  5
28F
  8
Í¼²ã_1
 62
   250
 10
108.3111277509625978
 20
-217.74023001341601
 30
0.0
 40
0.1999999999497139
  0
CIRCLE
  5
290
  8
Í¼²ã_1
 62
   250
 10
101.5383277526573949
 20
-217.0390260135912968
 30
0.0
 40
0.1999999999494331
  0
CIRCLE
  5
291
  8
Í¼²ã_1
 62
   250
 10
102.335127752458007
 20
-217.0390260135912968
 30
0.0
 40
0.1999999999494331
  0
CIRCLE
  5
292
  8
Í¼²ã_1
 62
   250
 10
103.1319277522585054
 20
-217.0390260135912968
 30
0.0
 40
0.1999999999494331
  0
CIRCLE
  5
293
  8
Í¼²ã_1
 62
   250
 10
103.9287277520593022
 20
-217.0390260135912968
 30
0.0
 40
0.1999999999495134
  0
CIRCLE
  5
294
  8
Í¼²ã_1
 62
   250
 10
104.7255277518599001
 20
-217.0390260135912968
 30
0.0
 40
0.1999999999493931
  0
CIRCLE
  5
295
  8
Í¼²ã_1
 62
   250
 10
105.5223277516604981
 20
-217.0390260135912968
 30
0.0
 40
0.1999999999494331
  0
CIRCLE
  5
296
  8
Í¼²ã_1
 62
   250
 10
106.319127751460897
 20
-217.0390260135912968
 30
0.0
 40
0.1999999999493128
  0
CIRCLE
  5
297
  8
Í¼²ã_1
 62
   250
 10
107.1159277512613954
 20
-217.0390260135912968
 30
0.0
 40
0.1999999999494733
  0
CIRCLE
  5
298
  8
Í¼²ã_1
 62
   250
 10
107.912727751062306
 20
-217.0390260135912968
 30
0.0
 40
0.1999999999494733
  0
CIRCLE
  5
299
  8
Í¼²ã_1
 62
   250
 10
101.1399277527572025
 20
-216.3378220137668109
 30
0.0
 40
0.1999999999500347
  0
CIRCLE
  5
29A
  8
Í¼²ã_1
 62
   250
 10
101.9367277525577009
 20
-216.3378220137668109
 30
0.0
 40
0.1999999999498743
  0
CIRCLE
  5
29B
  8
Í¼²ã_1
 62
   250
 10
102.7335277523582988
 20
-216.3378220137668109
 30
0.0
 40
0.1999999999498743
  0
CIRCLE
  5
29C
  8
Í¼²ã_1
 62
   250
 10
103.5303277521589962
 20
-216.3378220137668109
 30
0.0
 40
0.1999999999499144
  0
CIRCLE
  5
29D
  8
Í¼²ã_1
 62
   250
 10
104.3271277519594946
 20
-216.3378220137668109
 30
0.0
 40
0.1999999999499144
  0
CIRCLE
  5
29E
  8
Í¼²ã_1
 62
   250
 10
105.1239277517601067
 20
-216.3378220137668109
 30
0.0
 40
0.1999999999499144
  0
CIRCLE
  5
29F
  8
Í¼²ã_1
 62
   250
 10
105.9207277515607046
 20
-216.3378220137668109
 30
0.0
 40
0.1999999999499545
  0
CIRCLE
  5
2A0
  8
Í¼²ã_1
 62
   250
 10
106.717527751361601
 20
-216.3378220137668109
 30
0.0
 40
0.1999999999499545
  0
CIRCLE
  5
2A1
  8
Í¼²ã_1
 62
   250
 10
107.5143277511621989
 20
-216.3378220137668109
 30
0.0
 40
0.1999999999497941
  0
CIRCLE
  5
2A2
  8
Í¼²ã_1
 62
   250
 10
108.3111277509625978
 20
-216.3378220137668109
 30
0.0
 40
0.1999999999495535
  0
CIRCLE
  5
2A3
  8
Í¼²ã_1
 62
   250
 10
101.5383277526573949
 20
-215.6366180139420976
 30
0.0
 40
0.1999999999499144
  0
CIRCLE
  5
2A4
  8
Í¼²ã_1
 62
   250
 10
102.335127752458007
 20
-215.6366180139420976
 30
0.0
 40
0.1999999999499144
  0
CIRCLE
  5
2A5
  8
Í¼²ã_1
 62
   250
 10
103.1319277522585054
 20
-215.6366180139420976
 30
0.0
 40
0.1999999999499144
  0
CIRCLE
  5
2A6
  8
Í¼²ã_1
 62
   250
 10
103.9287277520593022
 20
-215.6366180139420976
 30
0.0
 40
0.1999999999499946
  0
CIRCLE
  5
2A7
  8
Í¼²ã_1
 62
   250
 10
104.7255277518599001
 20
-215.6366180139420976
 30
0.0
 40
0.1999999999498743
  0
CIRCLE
  5
2A8
  8
Í¼²ã_1
 62
   250
 10
105.5223277516604981
 20
-215.6366180139420976
 30
0.0
 40
0.1999999999499144
  0
CIRCLE
  5
2A9
  8
Í¼²ã_1
 62
   250
 10
106.319127751460897
 20
-215.6366180139420976
 30
0.0
 40
0.1999999999497941
  0
CIRCLE
  5
2AA
  8
Í¼²ã_1
 62
   250
 10
107.1159277512613954
 20
-215.6366180139420976
 30
0.0
 40
0.1999999999499545
  0
CIRCLE
  5
2AB
  8
Í¼²ã_1
 62
   250
 10
107.912727751062306
 20
-215.6366180139420976
 30
0.0
 40
0.1999999999499545
  0
CIRCLE
  5
2AC
  8
Í¼²ã_1
 62
   250
 10
101.1399277527572025
 20
-214.9354140141172991
 30
0.0
 40
0.1999999999500347
  0
CIRCLE
  5
2AD
  8
Í¼²ã_1
 62
   250
 10
101.9367277525577009
 20
-214.9354140141172991
 30
0.0
 40
0.1999999999498743
  0
CIRCLE
  5
2AE
  8
Í¼²ã_1
 62
   250
 10
102.7335277523582988
 20
-214.9354140141172991
 30
0.0
 40
0.1999999999498743
  0
CIRCLE
  5
2AF
  8
Í¼²ã_1
 62
   250
 10
103.5303277521589962
 20
-214.9354140141172991
 30
0.0
 40
0.1999999999499144
  0
CIRCLE
  5
2B0
  8
Í¼²ã_1
 62
   250
 10
104.3271277519594946
 20
-214.9354140141172991
 30
0.0
 40
0.1999999999499144
  0
CIRCLE
  5
2B1
  8
Í¼²ã_1
 62
   250
 10
105.1239277517601067
 20
-214.9354140141172991
 30
0.0
 40
0.1999999999499144
  0
CIRCLE
  5
2B2
  8
Í¼²ã_1
 62
   250
 10
105.9207277515607046
 20
-214.9354140141172991
 30
0.0
 40
0.1999999999499545
  0
CIRCLE
  5
2B3
  8
Í¼²ã_1
 62
   250
 10
106.717527751361601
 20
-214.9354140141172991
 30
0.0
 40
0.1999999999499545
  0
CIRCLE
  5
2B4
  8
Í¼²ã_1
 62
   250
 10
107.5143277511621989
 20
-214.9354140141172991
 30
0.0
 40
0.1999999999497941
  0
CIRCLE
  5
2B5
  8
Í¼²ã_1
 62
   250
 10
108.3111277509625978
 20
-214.9354140141172991
 30
0.0
 40
0.1999999999495535
  0
ENDBLK
  5
272
  8
0
  0
BLOCK
  8
0
  2
BLOCK_11
 70
     0
 10
0.0
 20
0.0
 30
0.0
  3
BLOCK_11
  1

  0
CIRCLE
  5
2BA
  8
Í¼²ã_1
 62
   250
 10
101.0213610858562987
 20
-245.358247825094395
 30
0.0
 40
0.2645833332675084
  0
CIRCLE
  5
2BB
  8
Í¼²ã_1
 62
   250
 10
101.8151110856579038
 20
-245.358247825094395
 30
0.0
 40
0.2645833332675084
  0
CIRCLE
  5
2BC
  8
Í¼²ã_1
 62
   250
 10
102.6088610854594947
 20
-245.358247825094395
 30
0.0
 40
0.2645833332675084
  0
CIRCLE
  5
2BD
  8
Í¼²ã_1
 62
   250
 10
103.4026110852610003
 20
-245.358247825094395
 30
0.0
 40
0.2645833332675084
  0
CIRCLE
  5
2BE
  8
Í¼²ã_1
 62
   250
 10
104.1963610850626054
 20
-245.358247825094395
 30
0.0
 40
0.2645833332675084
  0
CIRCLE
  5
2BF
  8
Í¼²ã_1
 62
   250
 10
104.9901110848641963
 20
-245.358247825094395
 30
0.0
 40
0.2645833332675084
  0
CIRCLE
  5
2C0
  8
Í¼²ã_1
 62
   250
 10
105.7838610846654035
 20
-245.358247825094395
 30
0.0
 40
0.2645833332675084
  0
CIRCLE
  5
2C1
  8
Í¼²ã_1
 62
   250
 10
106.5776110844668949
 20
-245.358247825094395
 30
0.0
 40
0.2645833332675084
  0
CIRCLE
  5
2C2
  8
Í¼²ã_1
 62
   250
 10
107.3713610842685
 20
-245.358247825094395
 30
0.0
 40
0.2645833332675084
  0
CIRCLE
  5
2C3
  8
Í¼²ã_1
 62
   250
 10
108.1651110840701051
 20
-245.358247825094395
 30
0.0
 40
0.2645833332675084
  0
CIRCLE
  5
2C4
  8
Í¼²ã_1
 62
   250
 10
108.9588610838715965
 20
-245.358247825094395
 30
0.0
 40
0.2645833332675084
  0
CIRCLE
  5
2C5
  8
Í¼²ã_1
 62
   250
 10
101.4182360857571013
 20
-244.6581550336030944
 30
0.0
 40
0.2645833332673479
  0
CIRCLE
  5
2C6
  8
Í¼²ã_1
 62
   250
 10
102.2119860855587063
 20
-244.6581550336030944
 30
0.0
 40
0.2645833332673479
  0
CIRCLE
  5
2C7
  8
Í¼²ã_1
 62
   250
 10
103.0057360853601978
 20
-244.6581550336030944
 30
0.0
 40
0.2645833332673479
  0
CIRCLE
  5
2C8
  8
Í¼²ã_1
 62
   250
 10
103.7994860851618029
 20
-244.6581550336030944
 30
0.0
 40
0.2645833332673479
  0
CIRCLE
  5
2C9
  8
Í¼²ã_1
 62
   250
 10
104.5932360849633938
 20
-244.6581550336030944
 30
0.0
 40
0.2645833332673479
  0
CIRCLE
  5
2CA
  8
Í¼²ã_1
 62
   250
 10
105.3869860847647999
 20
-244.6581550336030944
 30
0.0
 40
0.2645833332673078
  0
CIRCLE
  5
2CB
  8
Í¼²ã_1
 62
   250
 10
106.180736084566206
 20
-244.6581550336030944
 30
0.0
 40
0.2645833332673479
  0
CIRCLE
  5
2CC
  8
Í¼²ã_1
 62
   250
 10
106.9744860843676975
 20
-244.6581550336030944
 30
0.0
 40
0.2645833332673479
  0
CIRCLE
  5
2CD
  8
Í¼²ã_1
 62
   250
 10
107.7682360841693026
 20
-244.6581550336030944
 30
0.0
 40
0.2645833332673479
  0
CIRCLE
  5
2CE
  8
Í¼²ã_1
 62
   250
 10
108.561986083970794
 20
-244.6581550336030944
 30
0.0
 40
0.2645833332673479
  0
CIRCLE
  5
2CF
  8
Í¼²ã_1
 62
   250
 10
101.0213610858562987
 20
-243.9580622421113958
 30
0.0
 40
0.2645833332673479
  0
CIRCLE
  5
2D0
  8
Í¼²ã_1
 62
   250
 10
101.8151110856579038
 20
-243.9580622421113958
 30
0.0
 40
0.2645833332673479
  0
CIRCLE
  5
2D1
  8
Í¼²ã_1
 62
   250
 10
102.6088610854594947
 20
-243.9580622421113958
 30
0.0
 40
0.2645833332673479
  0
CIRCLE
  5
2D2
  8
Í¼²ã_1
 62
   250
 10
103.4026110852610003
 20
-243.9580622421113958
 30
0.0
 40
0.2645833332673479
  0
CIRCLE
  5
2D3
  8
Í¼²ã_1
 62
   250
 10
104.1963610850626054
 20
-243.9580622421113958
 30
0.0
 40
0.2645833332673479
  0
CIRCLE
  5
2D4
  8
Í¼²ã_1
 62
   250
 10
104.9901110848641963
 20
-243.9580622421113958
 30
0.0
 40
0.2645833332673479
  0
CIRCLE
  5
2D5
  8
Í¼²ã_1
 62
   250
 10
105.7838610846654035
 20
-243.9580622421113958
 30
0.0
 40
0.2645833332673479
  0
CIRCLE
  5
2D6
  8
Í¼²ã_1
 62
   250
 10
106.5776110844668949
 20
-243.9580622421113958
 30
0.0
 40
0.2645833332673479
  0
CIRCLE
  5
2D7
  8
Í¼²ã_1
 62
   250
 10
107.3713610842685
 20
-243.9580622421113958
 30
0.0
 40
0.2645833332673479
  0
CIRCLE
  5
2D8
  8
Í¼²ã_1
 62
   250
 10
108.1651110840701051
 20
-243.9580622421113958
 30
0.0
 40
0.2645833332673479
  0
CIRCLE
  5
2D9
  8
Í¼²ã_1
 62
   250
 10
108.9588610838715965
 20
-243.9580622421113958
 30
0.0
 40
0.2645833332673479
  0
CIRCLE
  5
2DA
  8
Í¼²ã_1
 62
   250
 10
101.4182360857571013
 20
-243.2579694506196972
 30
0.0
 40
0.2645833332673479
  0
CIRCLE
  5
2DB
  8
Í¼²ã_1
 62
   250
 10
102.2119860855587063
 20
-243.2579694506196972
 30
0.0
 40
0.2645833332673479
  0
CIRCLE
  5
2DC
  8
Í¼²ã_1
 62
   250
 10
103.0057360853601978
 20
-243.2579694506196972
 30
0.0
 40
0.2645833332673479
  0
CIRCLE
  5
2DD
  8
Í¼²ã_1
 62
   250
 10
103.7994860851618029
 20
-243.2579694506196972
 30
0.0
 40
0.2645833332673479
  0
CIRCLE
  5
2DE
  8
Í¼²ã_1
 62
   250
 10
104.5932360849633938
 20
-243.2579694506196972
 30
0.0
 40
0.2645833332673479
  0
CIRCLE
  5
2DF
  8
Í¼²ã_1
 62
   250
 10
105.3869860847647999
 20
-243.2579694506196972
 30
0.0
 40
0.2645833332673078
  0
CIRCLE
  5
2E0
  8
Í¼²ã_1
 62
   250
 10
106.180736084566206
 20
-243.2579694506196972
 30
0.0
 40
0.2645833332673479
  0
CIRCLE
  5
2E1
  8
Í¼²ã_1
 62
   250
 10
106.9744860843676975
 20
-243.2579694506196972
 30
0.0
 40
0.2645833332673479
  0
CIRCLE
  5
2E2
  8
Í¼²ã_1
 62
   250
 10
107.7682360841693026
 20
-243.2579694506196972
 30
0.0
 40
0.2645833332673479
  0
CIRCLE
  5
2E3
  8
Í¼²ã_1
 62
   250
 10
108.561986083970794
 20
-243.2579694506196972
 30
0.0
 40
0.2645833332673479
  0
CIRCLE
  5
2E4
  8
Í¼²ã_1
 62
   250
 10
101.0213610858562987
 20
-242.5578766591283966
 30
0.0
 40
0.2645833332671875
  0
CIRCLE
  5
2E5
  8
Í¼²ã_1
 62
   250
 10
101.8151110856579038
 20
-242.5578766591283966
 30
0.0
 40
0.2645833332671875
  0
CIRCLE
  5
2E6
  8
Í¼²ã_1
 62
   250
 10
102.6088610854594947
 20
-242.5578766591283966
 30
0.0
 40
0.2645833332671875
  0
CIRCLE
  5
2E7
  8
Í¼²ã_1
 62
   250
 10
103.4026110852610003
 20
-242.5578766591283966
 30
0.0
 40
0.2645833332671875
  0
CIRCLE
  5
2E8
  8
Í¼²ã_1
 62
   250
 10
104.1963610850626054
 20
-242.5578766591283966
 30
0.0
 40
0.2645833332671875
  0
CIRCLE
  5
2E9
  8
Í¼²ã_1
 62
   250
 10
104.9901110848641963
 20
-242.5578766591283966
 30
0.0
 40
0.2645833332671875
  0
CIRCLE
  5
2EA
  8
Í¼²ã_1
 62
   250
 10
105.7838610846654035
 20
-242.5578766591283966
 30
0.0
 40
0.2645833332671875
  0
CIRCLE
  5
2EB
  8
Í¼²ã_1
 62
   250
 10
106.5776110844668949
 20
-242.5578766591283966
 30
0.0
 40
0.2645833332671875
  0
CIRCLE
  5
2EC
  8
Í¼²ã_1
 62
   250
 10
107.3713610842685
 20
-242.5578766591283966
 30
0.0
 40
0.2645833332671875
  0
CIRCLE
  5
2ED
  8
Í¼²ã_1
 62
   250
 10
108.1651110840701051
 20
-242.5578766591283966
 30
0.0
 40
0.2645833332671875
  0
CIRCLE
  5
2EE
  8
Í¼²ã_1
 62
   250
 10
108.9588610838715965
 20
-242.5578766591283966
 30
0.0
 40
0.2645833332671875
  0
CIRCLE
  5
2EF
  8
Í¼²ã_1
 62
   250
 10
101.4182360857571013
 20
-241.8577838676366127
 30
0.0
 40
0.2645833332671875
  0
CIRCLE
  5
2F0
  8
Í¼²ã_1
 62
   250
 10
102.2119860855587063
 20
-241.8577838676366127
 30
0.0
 40
0.2645833332671875
  0
CIRCLE
  5
2F1
  8
Í¼²ã_1
 62
   250
 10
103.0057360853601978
 20
-241.8577838676366127
 30
0.0
 40
0.2645833332671875
  0
CIRCLE
  5
2F2
  8
Í¼²ã_1
 62
   250
 10
103.7994860851618029
 20
-241.8577838676366127
 30
0.0
 40
0.2645833332671875
  0
CIRCLE
  5
2F3
  8
Í¼²ã_1
 62
   250
 10
104.5932360849633938
 20
-241.8577838676366127
 30
0.0
 40
0.2645833332671875
  0
CIRCLE
  5
2F4
  8
Í¼²ã_1
 62
   250
 10
105.3869860847647999
 20
-241.8577838676366127
 30
0.0
 40
0.2645833332671474
  0
CIRCLE
  5
2F5
  8
Í¼²ã_1
 62
   250
 10
106.180736084566206
 20
-241.8577838676366127
 30
0.0
 40
0.2645833332671875
  0
CIRCLE
  5
2F6
  8
Í¼²ã_1
 62
   250
 10
106.9744860843676975
 20
-241.8577838676366127
 30
0.0
 40
0.2645833332671875
  0
CIRCLE
  5
2F7
  8
Í¼²ã_1
 62
   250
 10
107.7682360841693026
 20
-241.8577838676366127
 30
0.0
 40
0.2645833332671875
  0
CIRCLE
  5
2F8
  8
Í¼²ã_1
 62
   250
 10
108.561986083970794
 20
-241.8577838676366127
 30
0.0
 40
0.2645833332671875
  0
CIRCLE
  5
2F9
  8
Í¼²ã_1
 62
   250
 10
101.0213610858562987
 20
-241.1576910761449994
 30
0.0
 40
0.2645833332671875
  0
CIRCLE
  5
2FA
  8
Í¼²ã_1
 62
   250
 10
101.8151110856579038
 20
-241.1576910761449994
 30
0.0
 40
0.2645833332671875
  0
CIRCLE
  5
2FB
  8
Í¼²ã_1
 62
   250
 10
102.6088610854594947
 20
-241.1576910761449994
 30
0.0
 40
0.2645833332671875
  0
CIRCLE
  5
2FC
  8
Í¼²ã_1
 62
   250
 10
103.4026110852610003
 20
-241.1576910761449994
 30
0.0
 40
0.2645833332671875
  0
CIRCLE
  5
2FD
  8
Í¼²ã_1
 62
   250
 10
104.1963610850626054
 20
-241.1576910761449994
 30
0.0
 40
0.2645833332671875
  0
CIRCLE
  5
2FE
  8
Í¼²ã_1
 62
   250
 10
104.9901110848641963
 20
-241.1576910761449994
 30
0.0
 40
0.2645833332671875
  0
CIRCLE
  5
2FF
  8
Í¼²ã_1
 62
   250
 10
105.7838610846654035
 20
-241.1576910761449994
 30
0.0
 40
0.2645833332671875
  0
CIRCLE
  5
300
  8
Í¼²ã_1
 62
   250
 10
106.5776110844668949
 20
-241.1576910761449994
 30
0.0
 40
0.2645833332671875
  0
CIRCLE
  5
301
  8
Í¼²ã_1
 62
   250
 10
107.3713610842685
 20
-241.1576910761449994
 30
0.0
 40
0.2645833332671875
  0
CIRCLE
  5
302
  8
Í¼²ã_1
 62
   250
 10
108.1651110840701051
 20
-241.1576910761449994
 30
0.0
 40
0.2645833332671875
  0
CIRCLE
  5
303
  8
Í¼²ã_1
 62
   250
 10
108.9588610838715965
 20
-241.1576910761449994
 30
0.0
 40
0.2645833332671875
  0
ENDBLK
  5
2B9
  8
0
  0
BLOCK
  8
0
  2
BLOCK_12
 70
     0
 10
0.0
 20
0.0
 30
0.0
  3
BLOCK_12
  1

  0
CIRCLE
  5
308
  8
Í¼²ã_1
 62
   250
 10
102.1275777525107031
 20
-269.7000662462814944
 30
0.0
 40
0.1999999999500347
  0
CIRCLE
  5
309
  8
Í¼²ã_1
 62
   250
 10
102.924377752311301
 20
-269.7000662462814944
 30
0.0
 40
0.1999999999498743
  0
CIRCLE
  5
30A
  8
Í¼²ã_1
 62
   250
 10
103.7211777521117995
 20
-269.7000662462814944
 30
0.0
 40
0.1999999999498743
  0
CIRCLE
  5
30B
  8
Í¼²ã_1
 62
   250
 10
104.5179777519124968
 20
-269.7000662462814944
 30
0.0
 40
0.1999999999499144
  0
CIRCLE
  5
30C
  8
Í¼²ã_1
 62
   250
 10
105.3147777517129953
 20
-269.7000662462814944
 30
0.0
 40
0.1999999999498743
  0
CIRCLE
  5
30D
  8
Í¼²ã_1
 62
   250
 10
106.1115777515133942
 20
-269.7000662462814944
 30
0.0
 40
0.1999999999499545
  0
CIRCLE
  5
30E
  8
Í¼²ã_1
 62
   250
 10
106.9083777513142053
 20
-269.7000662462814944
 30
0.0
 40
0.1999999999499545
  0
CIRCLE
  5
30F
  8
Í¼²ã_1
 62
   250
 10
107.7051777511151016
 20
-269.7000662462814944
 30
0.0
 40
0.1999999999499545
  0
CIRCLE
  5
310
  8
Í¼²ã_1
 62
   250
 10
108.5019777509156995
 20
-269.7000662462814944
 30
0.0
 40
0.1999999999497941
  0
CIRCLE
  5
311
  8
Í¼²ã_1
 62
   250
 10
109.2987777507160985
 20
-269.7000662462814944
 30
0.0
 40
0.1999999999495535
  0
CIRCLE
  5
312
  8
Í¼²ã_1
 62
   250
 10
102.5259777524108955
 20
-268.9988622464574064
 30
0.0
 40
0.1999999999495936
  0
CIRCLE
  5
313
  8
Í¼²ã_1
 62
   250
 10
103.3227777522114934
 20
-268.9988622464574064
 30
0.0
 40
0.1999999999495936
  0
CIRCLE
  5
314
  8
Í¼²ã_1
 62
   250
 10
104.119577752012006
 20
-268.9988622464574064
 30
0.0
 40
0.1999999999495936
  0
CIRCLE
  5
315
  8
Í¼²ã_1
 62
   250
 10
104.9163777518128029
 20
-268.9988622464574064
 30
0.0
 40
0.1999999999496738
  0
CIRCLE
  5
316
  8
Í¼²ã_1
 62
   250
 10
105.7131777516135998
 20
-268.9988622464574064
 30
0.0
 40
0.1999999999496337
  0
CIRCLE
  5
317
  8
Í¼²ã_1
 62
   250
 10
106.5099777514140982
 20
-268.9988622464574064
 30
0.0
 40
0.1999999999494733
  0
CIRCLE
  5
318
  8
Í¼²ã_1
 62
   250
 10
107.3067777512143977
 20
-268.9988622464574064
 30
0.0
 40
0.1999999999494733
  0
CIRCLE
  5
319
  8
Í¼²ã_1
 62
   250
 10
108.1035777510149956
 20
-268.9988622464574064
 30
0.0
 40
0.1999999999496337
  0
CIRCLE
  5
31A
  8
Í¼²ã_1
 62
   250
 10
108.9003777508158066
 20
-268.9988622464574064
 30
0.0
 40
0.1999999999496337
  0
CIRCLE
  5
31B
  8
Í¼²ã_1
 62
   250
 10
102.1275777525107031
 20
-268.2976582466332047
 30
0.0
 40
0.1999999999500347
  0
CIRCLE
  5
31C
  8
Í¼²ã_1
 62
   250
 10
102.924377752311301
 20
-268.2976582466332047
 30
0.0
 40
0.1999999999498743
  0
CIRCLE
  5
31D
  8
Í¼²ã_1
 62
   250
 10
103.7211777521117995
 20
-268.2976582466332047
 30
0.0
 40
0.1999999999498743
  0
CIRCLE
  5
31E
  8
Í¼²ã_1
 62
   250
 10
104.5179777519124968
 20
-268.2976582466332047
 30
0.0
 40
0.1999999999499144
  0
CIRCLE
  5
31F
  8
Í¼²ã_1
 62
   250
 10
105.3147777517129953
 20
-268.2976582466332047
 30
0.0
 40
0.1999999999498743
  0
CIRCLE
  5
320
  8
Í¼²ã_1
 62
   250
 10
106.1115777515133942
 20
-268.2976582466332047
 30
0.0
 40
0.1999999999499545
  0
CIRCLE
  5
321
  8
Í¼²ã_1
 62
   250
 10
106.9083777513142053
 20
-268.2976582466332047
 30
0.0
 40
0.1999999999499545
  0
CIRCLE
  5
322
  8
Í¼²ã_1
 62
   250
 10
107.7051777511151016
 20
-268.2976582466332047
 30
0.0
 40
0.1999999999499545
  0
CIRCLE
  5
323
  8
Í¼²ã_1
 62
   250
 10
108.5019777509156995
 20
-268.2976582466332047
 30
0.0
 40
0.1999999999497941
  0
CIRCLE
  5
324
  8
Í¼²ã_1
 62
   250
 10
109.2987777507160985
 20
-268.2976582466332047
 30
0.0
 40
0.1999999999495535
  0
CIRCLE
  5
325
  8
Í¼²ã_1
 62
   250
 10
102.5259777524108955
 20
-267.5964542468084915
 30
0.0
 40
0.1999999999499144
  0
CIRCLE
  5
326
  8
Í¼²ã_1
 62
   250
 10
103.3227777522114934
 20
-267.5964542468084915
 30
0.0
 40
0.1999999999499144
  0
CIRCLE
  5
327
  8
Í¼²ã_1
 62
   250
 10
104.119577752012006
 20
-267.5964542468084915
 30
0.0
 40
0.1999999999499144
  0
CIRCLE
  5
328
  8
Í¼²ã_1
 62
   250
 10
104.9163777518128029
 20
-267.5964542468084915
 30
0.0
 40
0.1999999999499946
  0
CIRCLE
  5
329
  8
Í¼²ã_1
 62
   250
 10
105.7131777516135998
 20
-267.5964542468084915
 30
0.0
 40
0.1999999999499545
  0
CIRCLE
  5
32A
  8
Í¼²ã_1
 62
   250
 10
106.5099777514140982
 20
-267.5964542468084915
 30
0.0
 40
0.1999999999497941
  0
CIRCLE
  5
32B
  8
Í¼²ã_1
 62
   250
 10
107.3067777512143977
 20
-267.5964542468084915
 30
0.0
 40
0.1999999999497941
  0
CIRCLE
  5
32C
  8
Í¼²ã_1
 62
   250
 10
108.1035777510149956
 20
-267.5964542468084915
 30
0.0
 40
0.1999999999499545
  0
CIRCLE
  5
32D
  8
Í¼²ã_1
 62
   250
 10
108.9003777508158066
 20
-267.5964542468084915
 30
0.0
 40
0.1999999999499545
  0
CIRCLE
  5
32E
  8
Í¼²ã_1
 62
   250
 10
102.1275777525107031
 20
-266.8952502469837214
 30
0.0
 40
0.1999999999500347
  0
CIRCLE
  5
32F
  8
Í¼²ã_1
 62
   250
 10
102.924377752311301
 20
-266.8952502469837214
 30
0.0
 40
0.1999999999498743
  0
CIRCLE
  5
330
  8
Í¼²ã_1
 62
   250
 10
103.7211777521117995
 20
-266.8952502469837214
 30
0.0
 40
0.1999999999498743
  0
CIRCLE
  5
331
  8
Í¼²ã_1
 62
   250
 10
104.5179777519124968
 20
-266.8952502469837214
 30
0.0
 40
0.1999999999499144
  0
CIRCLE
  5
332
  8
Í¼²ã_1
 62
   250
 10
105.3147777517129953
 20
-266.8952502469837214
 30
0.0
 40
0.1999999999498743
  0
CIRCLE
  5
333
  8
Í¼²ã_1
 62
   250
 10
106.1115777515133942
 20
-266.8952502469837214
 30
0.0
 40
0.1999999999499545
  0
CIRCLE
  5
334
  8
Í¼²ã_1
 62
   250
 10
106.9083777513142053
 20
-266.8952502469837214
 30
0.0
 40
0.1999999999499545
  0
CIRCLE
  5
335
  8
Í¼²ã_1
 62
   250
 10
107.7051777511151016
 20
-266.8952502469837214
 30
0.0
 40
0.1999999999499545
  0
CIRCLE
  5
336
  8
Í¼²ã_1
 62
   250
 10
108.5019777509156995
 20
-266.8952502469837214
 30
0.0
 40
0.1999999999497941
  0
CIRCLE
  5
337
  8
Í¼²ã_1
 62
   250
 10
109.2987777507160985
 20
-266.8952502469837214
 30
0.0
 40
0.1999999999495535
  0
CIRCLE
  5
338
  8
Í¼²ã_1
 62
   250
 10
102.5259777524108955
 20
-266.1940462471588944
 30
0.0
 40
0.1999999999499144
  0
CIRCLE
  5
339
  8
Í¼²ã_1
 62
   250
 10
103.3227777522114934
 20
-266.1940462471588944
 30
0.0
 40
0.1999999999499144
  0
CIRCLE
  5
33A
  8
Í¼²ã_1
 62
   250
 10
104.119577752012006
 20
-266.1940462471588944
 30
0.0
 40
0.1999999999499144
  0
CIRCLE
  5
33B
  8
Í¼²ã_1
 62
   250
 10
104.9163777518128029
 20
-266.1940462471588944
 30
0.0
 40
0.1999999999499946
  0
CIRCLE
  5
33C
  8
Í¼²ã_1
 62
   250
 10
105.7131777516135998
 20
-266.1940462471588944
 30
0.0
 40
0.1999999999499545
  0
CIRCLE
  5
33D
  8
Í¼²ã_1
 62
   250
 10
106.5099777514140982
 20
-266.1940462471588944
 30
0.0
 40
0.1999999999497941
  0
CIRCLE
  5
33E
  8
Í¼²ã_1
 62
   250
 10
107.3067777512143977
 20
-266.1940462471588944
 30
0.0
 40
0.1999999999497941
  0
CIRCLE
  5
33F
  8
Í¼²ã_1
 62
   250
 10
108.1035777510149956
 20
-266.1940462471588944
 30
0.0
 40
0.1999999999499545
  0
CIRCLE
  5
340
  8
Í¼²ã_1
 62
   250
 10
108.9003777508158066
 20
-266.1940462471588944
 30
0.0
 40
0.1999999999499545
  0
CIRCLE
  5
341
  8
Í¼²ã_1
 62
   250
 10
102.1275777525107031
 20
-265.4928422473341811
 30
0.0
 40
0.1999999999500347
  0
CIRCLE
  5
342
  8
Í¼²ã_1
 62
   250
 10
102.924377752311301
 20
-265.4928422473341811
 30
0.0
 40
0.1999999999498743
  0
CIRCLE
  5
343
  8
Í¼²ã_1
 62
   250
 10
103.7211777521117995
 20
-265.4928422473341811
 30
0.0
 40
0.1999999999498743
  0
CIRCLE
  5
344
  8
Í¼²ã_1
 62
   250
 10
104.5179777519124968
 20
-265.4928422473341811
 30
0.0
 40
0.1999999999499144
  0
CIRCLE
  5
345
  8
Í¼²ã_1
 62
   250
 10
105.3147777517129953
 20
-265.4928422473341811
 30
0.0
 40
0.1999999999498743
  0
CIRCLE
  5
346
  8
Í¼²ã_1
 62
   250
 10
106.1115777515133942
 20
-265.4928422473341811
 30
0.0
 40
0.1999999999499545
  0
CIRCLE
  5
347
  8
Í¼²ã_1
 62
   250
 10
106.9083777513142053
 20
-265.4928422473341811
 30
0.0
 40
0.1999999999499545
  0
CIRCLE
  5
348
  8
Í¼²ã_1
 62
   250
 10
107.7051777511151016
 20
-265.4928422473341811
 30
0.0
 40
0.1999999999499545
  0
CIRCLE
  5
349
  8
Í¼²ã_1
 62
   250
 10
108.5019777509156995
 20
-265.4928422473341811
 30
0.0
 40
0.1999999999497941
  0
CIRCLE
  5
34A
  8
Í¼²ã_1
 62
   250
 10
109.2987777507160985
 20
-265.4928422473341811
 30
0.0
 40
0.1999999999495535
  0
ENDBLK
  5
307
  8
0
  0
ENDSEC
  0
SECTION
  2
ENTITIES
  0
INSERT
  5
7A
  8
0
  2
BLOCK_0
 10
0.0
 20
0.0
 30
0.0
  0
ENDSEC
  0
EOF
